<svg xmlns="http://www.w3.org/2000/svg" xmlns:xlink="http://www.w3.org/1999/xlink" width="512" zoomAndPan="magnify" viewBox="0 0 384 383.999986" height="512" preserveAspectRatio="xMidYMid meet" version="1.0"><path fill="#33333b" d="M 251.582031 11.890625 C 272.890625 22.339844 289.933594 37.792969 303.160156 57.394531 C 308.054688 64.804688 311.683594 72.289062 314.539062 80.699219 L 315.128906 82.441406 C 315.722656 84.183594 316.277344 85.851562 316.910156 87.59375 L 317.429688 89.148438 C 323.429688 106.640625 323.875 127.796875 320.652344 145.917969 C 319.984375 149.140625 319.132812 152.289062 318.28125 155.476562 C 318.019531 156.515625 317.761719 157.515625 317.503906 158.589844 C 312.054688 179.710938 300.199219 198.792969 285.5625 214.726562 C 282.632812 217.988281 280.003906 221.507812 277.335938 224.953125 C 276.484375 226.0625 275.632812 227.140625 274.816406 228.25 C 261.921875 244.886719 254.546875 263.304688 251.359375 284.054688 C 251.210938 285.980469 251.175781 287.425781 251.695312 289.242188 C 252.953125 290.835938 254.324219 292.058594 255.84375 293.355469 C 257.769531 295.28125 258.625 297.246094 259.511719 299.800781 C 260.214844 302.730469 260.402344 305.433594 259.957031 308.472656 C 259.511719 310.066406 258.917969 311.621094 258.253906 313.105469 C 257.769531 314.660156 257.769531 314.660156 258.214844 316.4375 C 258.84375 320.441406 258.769531 324.480469 258.769531 328.445312 C 258.769531 330 258.808594 331.558594 258.808594 333.113281 C 258.808594 334.113281 258.808594 335.113281 258.808594 336.113281 L 258.84375 338.820312 C 258.476562 342.304688 257.4375 344.824219 255.472656 347.75 C 252.992188 350.714844 250.695312 352.492188 247.0625 353.9375 C 244.023438 354.863281 241.28125 355.199219 238.132812 355.125 L 236.09375 355.125 L 234.539062 355.085938 L 234.277344 356.53125 C 233.09375 361.757812 231.019531 365.351562 227.71875 369.5 L 226.757812 370.835938 C 223.164062 375.503906 217.976562 378.394531 212.601562 380.726562 C 205.96875 383.097656 199.707031 383.691406 192.703125 382.542969 C 184.921875 380.652344 178.957031 378.097656 173.101562 372.574219 C 170.0625 369.425781 167.171875 366.128906 166.097656 361.832031 C 165.433594 359.273438 165.023438 357.753906 163.246094 355.789062 C 160.320312 354.789062 157.355469 354.53125 154.277344 354.34375 C 150.980469 354.121094 148.609375 353.863281 145.757812 352.121094 C 142.347656 349.675781 140.085938 346.933594 137.9375 343.378906 C 136.457031 339.523438 136.828125 335.152344 137.160156 331.113281 C 137.640625 329.296875 138.308594 327.960938 139.199219 326.296875 C 139.753906 324.960938 139.753906 324.960938 139.902344 323.554688 C 139.382812 322.257812 138.863281 320.960938 138.382812 319.664062 C 137.382812 316.585938 137.566406 313.4375 137.605469 310.175781 L 137.566406 308.140625 C 137.566406 303.804688 138.085938 300.097656 139.902344 296.097656 C 140.9375 294.355469 140.9375 294.355469 141.941406 293.09375 L 142.976562 291.761719 C 144.050781 290.613281 144.050781 290.613281 146.089844 289.242188 C 147.757812 282.054688 144.792969 272.417969 142.828125 265.453125 C 137.160156 247.109375 126.933594 230.917969 114 216.835938 C 111.296875 213.875 108.8125 210.761719 106.332031 207.609375 L 104.664062 205.609375 C 90.730469 188.046875 82.097656 168.480469 77.503906 146.546875 L 76.984375 144.285156 C 72.980469 124.203125 75.722656 102.824219 81.839844 83.515625 C 87.175781 68.472656 95.363281 54.132812 106.21875 42.460938 C 107.554688 41.054688 108.8125 39.570312 110.035156 38.125 C 123.746094 22.453125 143.199219 12.113281 162.652344 5.40625 C 191.257812 -4.003906 224.570312 -0.964844 251.582031 11.890625 " fill-opacity="1" fill-rule="nonzero"/><path fill="#ffffff" d="M 251.582031 11.890625 C 272.890625 22.339844 289.933594 37.792969 303.160156 57.394531 C 308.054688 64.804688 311.683594 72.289062 314.539062 80.699219 L 315.128906 82.441406 C 315.722656 84.183594 316.277344 85.851562 316.910156 87.59375 L 317.429688 89.148438 C 323.429688 106.640625 323.875 127.796875 320.652344 145.917969 C 319.984375 149.140625 319.132812 152.289062 318.28125 155.476562 C 318.019531 156.515625 317.761719 157.515625 317.503906 158.589844 C 312.054688 179.710938 300.199219 198.792969 285.5625 214.726562 C 282.632812 217.988281 280.003906 221.507812 277.335938 224.953125 C 276.484375 226.0625 275.632812 227.140625 274.816406 228.25 C 261.921875 244.886719 254.546875 263.304688 251.359375 284.054688 C 251.210938 285.980469 251.175781 287.425781 251.695312 289.242188 C 252.953125 290.835938 254.324219 292.058594 255.84375 293.355469 C 257.769531 295.28125 258.625 297.246094 259.511719 299.800781 C 260.214844 302.730469 260.402344 305.433594 259.957031 308.472656 C 259.511719 310.066406 258.917969 311.621094 258.253906 313.105469 C 257.769531 314.660156 257.769531 314.660156 258.214844 316.4375 C 258.84375 320.441406 258.769531 324.480469 258.769531 328.445312 C 258.769531 330 258.808594 331.558594 258.808594 333.113281 C 258.808594 334.113281 258.808594 335.113281 258.808594 336.113281 L 258.84375 338.820312 C 258.476562 342.304688 257.4375 344.824219 255.472656 347.75 C 252.992188 350.714844 250.695312 352.492188 247.0625 353.9375 C 244.023438 354.863281 241.28125 355.199219 238.132812 355.125 L 236.09375 355.125 L 234.539062 355.085938 L 234.277344 356.53125 C 233.09375 361.757812 231.019531 365.351562 227.71875 369.5 L 226.757812 370.835938 C 223.164062 375.503906 217.976562 378.394531 212.601562 380.726562 C 205.96875 383.097656 199.707031 383.691406 192.703125 382.542969 C 184.921875 380.652344 178.957031 378.097656 173.101562 372.574219 C 170.0625 369.425781 167.171875 366.128906 166.097656 361.832031 C 165.433594 359.273438 165.023438 357.753906 163.246094 355.789062 C 160.320312 354.789062 157.355469 354.53125 154.277344 354.34375 C 150.980469 354.121094 148.609375 353.863281 145.757812 352.121094 C 142.347656 349.675781 140.085938 346.933594 137.9375 343.378906 C 136.457031 339.523438 136.828125 335.152344 137.160156 331.113281 C 137.640625 329.296875 138.308594 327.960938 139.199219 326.296875 C 139.753906 324.960938 139.753906 324.960938 139.902344 323.554688 C 139.382812 322.257812 138.863281 320.960938 138.382812 319.664062 C 137.382812 316.585938 137.566406 313.4375 137.605469 310.175781 L 137.566406 308.140625 C 137.566406 303.804688 138.085938 300.097656 139.902344 296.097656 C 140.9375 294.355469 140.9375 294.355469 141.941406 293.09375 L 142.976562 291.761719 C 144.050781 290.613281 144.050781 290.613281 146.089844 289.242188 C 147.757812 282.054688 144.792969 272.417969 142.828125 265.453125 C 137.160156 247.109375 126.933594 230.917969 114 216.835938 C 111.296875 213.875 108.8125 210.761719 106.332031 207.609375 L 104.664062 205.609375 C 90.730469 188.046875 82.097656 168.480469 77.503906 146.546875 L 76.984375 144.285156 C 72.980469 124.203125 75.722656 102.824219 81.839844 83.515625 C 87.175781 68.472656 95.363281 54.132812 106.21875 42.460938 C 107.554688 41.054688 108.8125 39.570312 110.035156 38.125 C 123.746094 22.453125 143.199219 12.113281 162.652344 5.40625 C 191.257812 -4.003906 224.570312 -0.964844 251.582031 11.890625 M 142.71875 30.269531 C 136.121094 34.71875 129.898438 39.535156 124.152344 45.019531 L 123.078125 46.019531 C 110.296875 58.023438 100.734375 72.917969 95.324219 89.632812 C 92.65625 98.636719 90.433594 107.566406 90.359375 116.976562 L 90.359375 118.496094 C 90.359375 119.535156 90.359375 120.609375 90.359375 121.609375 C 90.359375 123.238281 90.324219 124.757812 90.324219 126.351562 C 90.285156 133.316406 91.066406 139.726562 92.582031 146.546875 C 92.84375 148.140625 93.140625 149.695312 93.4375 151.253906 C 97.4375 169.445312 107.144531 186.972656 119.558594 200.757812 C 121.117188 202.460938 122.523438 204.3125 123.859375 206.167969 L 125.523438 208.277344 L 126.894531 208.277344 L 127.339844 209.425781 C 128.527344 211.539062 130.046875 213.167969 131.640625 214.949219 C 136.160156 220.136719 139.789062 225.804688 143.347656 231.660156 L 144.125 232.882812 C 153.425781 248.074219 160.097656 265.972656 161.058594 283.867188 L 161.207031 285.164062 L 161.875 285.796875 C 162.839844 285.871094 163.800781 285.90625 164.800781 285.90625 L 171.027344 285.90625 C 173.4375 285.90625 175.882812 285.90625 178.289062 285.90625 L 183.328125 285.90625 C 187.738281 285.871094 192.148438 285.871094 196.558594 285.871094 C 201.078125 285.871094 205.5625 285.871094 210.082031 285.871094 C 218.9375 285.871094 227.757812 285.796875 236.648438 285.796875 L 236.796875 284.574219 C 237.09375 282.71875 237.355469 280.832031 237.578125 278.941406 L 237.835938 277.050781 C 240.6875 257.078125 248.953125 237.550781 261.253906 221.582031 C 265.367188 216.320312 269.738281 211.207031 274.148438 206.203125 C 281.855469 197.308594 288.746094 187.863281 294.269531 177.449219 L 295.492188 175.226562 C 303.867188 159.441406 307.421875 141.878906 307.421875 124.164062 L 307.421875 121.496094 C 307.460938 104.121094 303.050781 86.554688 294.566406 71.363281 C 287.230469 58.691406 277.855469 46.980469 266.109375 38.164062 L 265.035156 37.347656 C 249.285156 25.378906 231.832031 18.449219 212.304688 15.335938 C 188.070312 12.597656 163.542969 17.449219 142.71875 30.269531 " fill-opacity="1" fill-rule="nonzero"/><path fill="#81c784" d="M 238.503906 103.082031 C 239.429688 103.082031 240.390625 103.042969 241.394531 103.042969 C 242.765625 103.007812 244.171875 103.007812 245.542969 102.96875 L 248.136719 102.933594 C 250.324219 103.378906 250.324219 103.378906 252.210938 104.601562 C 253.804688 106.789062 253.804688 106.789062 254.101562 108.417969 C 254.25 110.492188 254.25 112.640625 254.175781 114.714844 L 254.25 117.164062 C 254.25 119.792969 254.175781 122.460938 254.175781 125.128906 C 254.175781 126.980469 254.175781 128.835938 254.175781 130.6875 C 254.175781 134.578125 254.175781 138.429688 254.140625 142.320312 C 254.140625 146.769531 254.101562 151.253906 254.140625 155.699219 C 254.140625 160.070312 254.140625 164.371094 254.101562 168.667969 C 254.101562 170.484375 254.101562 172.335938 254.101562 174.152344 C 254.101562 176.707031 254.101562 179.265625 254.066406 181.820312 L 254.066406 184.117188 C 254.066406 187.046875 254.027344 189.234375 252.878906 191.9375 C 251.695312 193.199219 251.695312 193.199219 249.65625 193.863281 C 246.46875 194.050781 243.320312 194.050781 240.132812 194.050781 C 238.835938 194.085938 238.835938 194.085938 237.464844 194.085938 L 234.910156 194.085938 L 232.574219 194.160156 C 230.460938 193.863281 230.460938 193.863281 228.570312 193.125 C 227.015625 191.828125 227.015625 191.828125 226.273438 190.195312 C 225.421875 186.75 225.460938 183.453125 225.460938 179.96875 L 225.460938 177.558594 C 225.421875 175.003906 225.421875 172.484375 225.421875 169.890625 L 225.421875 164.515625 C 225.421875 160.773438 225.421875 157.03125 225.421875 153.328125 C 225.421875 148.992188 225.386719 144.695312 225.386719 140.320312 C 225.347656 136.171875 225.347656 132.058594 225.347656 127.871094 C 225.347656 126.09375 225.347656 124.3125 225.347656 122.570312 C 225.347656 120.089844 225.347656 117.644531 225.347656 115.160156 L 225.273438 112.9375 C 225.347656 111.085938 225.386719 109.308594 225.644531 107.453125 C 226.980469 105.304688 226.980469 105.304688 228.386719 104.046875 C 231.351562 102.5625 235.203125 103.15625 238.503906 103.082031 M 253.066406 50.539062 C 254.175781 51.984375 254.175781 51.984375 255.175781 53.949219 C 255.4375 56.320312 255.4375 56.320312 255.4375 58.988281 L 255.4375 60.394531 C 255.4375 61.433594 255.4375 62.433594 255.4375 63.433594 C 255.4375 64.988281 255.4375 66.472656 255.4375 68.027344 C 255.4375 69.027344 255.4375 69.992188 255.4375 70.957031 L 255.4375 73.625 C 255.175781 75.882812 255.175781 75.882812 254.25 77.515625 C 253.066406 78.625 253.066406 78.625 250.769531 79.292969 C 248.285156 79.332031 248.285156 79.332031 246.359375 78.738281 L 244.875 77.253906 C 244.394531 75.21875 244.210938 73.214844 244.171875 71.105469 C 241.910156 72.882812 239.910156 74.585938 238.09375 76.808594 C 233.945312 81.628906 229.277344 86.035156 224.753906 90.519531 C 218.679688 96.484375 218.679688 96.484375 212.972656 102.824219 C 211.195312 104.859375 209.304688 106.824219 207.378906 108.714844 L 206.265625 109.9375 C 204.191406 112.011719 202.523438 113.53125 199.597656 114.308594 C 197.003906 114.53125 195.296875 114.53125 192.851562 113.457031 C 190.445312 112.121094 188.332031 110.53125 186.144531 108.824219 L 183.847656 107.046875 L 181.773438 105.417969 C 180.847656 104.710938 179.957031 104.046875 179.03125 103.378906 C 176.585938 104.378906 175.066406 105.785156 173.214844 107.714844 L 171.398438 109.566406 L 170.398438 110.53125 C 169.433594 111.605469 168.433594 112.640625 167.394531 113.640625 C 164.578125 116.570312 161.691406 119.496094 158.835938 122.425781 C 157.132812 124.203125 155.351562 126.019531 153.613281 127.796875 C 152.945312 128.464844 152.277344 129.167969 151.609375 129.835938 C 146.535156 135.207031 146.535156 135.207031 143.828125 136.171875 C 141.644531 136.46875 139.976562 136.28125 137.863281 135.6875 C 136.457031 134.207031 136.457031 134.207031 135.972656 132.875 C 135.566406 131.09375 135.566406 129.835938 135.789062 128.054688 C 136.640625 126.722656 136.640625 126.722656 137.789062 125.5 L 139.125 124.054688 C 142.308594 120.792969 145.535156 117.53125 148.832031 114.347656 C 151.722656 111.492188 154.5 108.566406 157.167969 105.453125 C 159.761719 102.527344 162.617188 99.746094 165.394531 96.894531 L 169.027344 93.261719 L 170.621094 91.632812 C 172.066406 90.371094 173.175781 89.632812 174.882812 88.964844 C 177.03125 88.628906 178.363281 88.554688 180.402344 88.964844 C 182.550781 90.039062 184.402344 91.410156 186.332031 92.890625 L 187.886719 94.003906 C 189.960938 95.558594 192 97.117188 193.964844 98.859375 L 195.445312 99.894531 C 196.816406 99.820312 196.816406 99.820312 198.226562 99.226562 C 199.375 98.339844 199.375 98.339844 200.375 97.265625 L 201.558594 96.003906 L 202.855469 94.671875 C 203.707031 93.78125 204.597656 92.890625 205.449219 92.003906 L 206.710938 90.742188 C 207.96875 89.484375 209.304688 88.335938 210.675781 87.1875 C 213.453125 84.777344 215.898438 82.070312 218.382812 79.367188 C 220.679688 76.808594 223.089844 74.328125 225.496094 71.917969 C 228.425781 69.027344 231.238281 65.992188 233.90625 62.839844 L 232.609375 62.617188 L 230.871094 62.285156 L 229.203125 61.914062 C 227.71875 61.46875 227.71875 61.46875 226.347656 60.136719 C 225.90625 58.136719 225.644531 56.617188 225.644531 54.652344 C 226.386719 52.652344 226.386719 52.652344 227.71875 51.207031 C 231.722656 49.316406 236.058594 49.464844 240.390625 49.316406 L 242.726562 49.207031 C 250.210938 48.945312 250.210938 48.945312 253.066406 50.539062 M 190.257812 127.613281 L 194.410156 127.613281 C 195.410156 127.613281 196.445312 127.613281 197.410156 127.613281 C 198.964844 127.648438 200.484375 127.648438 202.003906 127.613281 C 203.003906 127.648438 203.96875 127.648438 204.933594 127.648438 L 207.601562 127.648438 C 209.859375 128.054688 209.859375 128.054688 211.378906 129.058594 C 212.601562 130.796875 212.601562 130.796875 212.972656 133.316406 C 212.972656 134.390625 212.972656 135.429688 212.972656 136.46875 L 212.972656 138.210938 C 212.972656 140.0625 212.972656 141.988281 212.972656 143.839844 C 212.972656 145.175781 212.972656 146.433594 212.972656 147.769531 C 212.972656 150.511719 212.972656 153.289062 212.933594 156.03125 C 212.933594 159.515625 212.933594 163.035156 212.933594 166.59375 C 212.933594 169.261719 212.933594 171.964844 212.933594 174.671875 C 212.933594 175.96875 212.933594 177.265625 212.933594 178.597656 C 212.933594 180.414062 212.933594 182.230469 212.933594 184.007812 L 212.933594 185.636719 C 212.859375 187.972656 212.640625 189.675781 211.636719 191.828125 C 210.5625 193.199219 210.5625 193.199219 209.339844 193.753906 C 205.746094 194.085938 202.191406 194.050781 198.59375 194.050781 C 197.335938 194.085938 197.335938 194.085938 196.039062 194.085938 L 193.59375 194.085938 L 191.332031 194.160156 C 189 193.863281 187.738281 193.269531 185.886719 191.828125 C 184.515625 189.75 184.515625 189.75 184.328125 187.304688 C 184.292969 186.304688 184.292969 185.269531 184.292969 184.265625 L 184.292969 182.527344 C 184.253906 180.671875 184.253906 178.820312 184.253906 176.929688 L 184.253906 173.039062 C 184.179688 170.335938 184.179688 167.628906 184.179688 164.886719 C 184.179688 161.441406 184.144531 157.921875 184.144531 154.476562 C 184.105469 151.769531 184.105469 149.101562 184.105469 146.398438 C 184.105469 145.136719 184.105469 143.839844 184.105469 142.542969 C 184.070312 140.765625 184.070312 138.949219 184.070312 137.171875 L 184.070312 135.578125 C 184.070312 134.097656 184.070312 134.097656 184.515625 131.464844 C 186.367188 129.019531 187.257812 128.128906 190.257812 127.613281 M 148.425781 148.175781 C 149.351562 148.175781 150.277344 148.175781 151.203125 148.175781 L 152.683594 148.175781 C 153.761719 148.175781 154.761719 148.175781 155.835938 148.214844 C 157.390625 148.214844 158.984375 148.214844 160.578125 148.214844 C 161.578125 148.214844 162.578125 148.214844 163.578125 148.214844 L 165.0625 148.214844 C 166.394531 148.25 166.394531 148.25 168.730469 148.621094 C 170.25 149.769531 170.25 149.769531 171.472656 151.363281 C 171.804688 153.140625 171.804688 153.140625 171.804688 155.21875 L 171.84375 157.589844 L 171.804688 160.109375 L 171.804688 162.664062 C 171.804688 164.480469 171.804688 166.296875 171.804688 168.113281 C 171.804688 170.445312 171.730469 172.78125 171.804688 175.078125 C 171.804688 177.300781 171.804688 179.523438 171.730469 181.746094 L 171.804688 184.265625 L 171.730469 186.601562 L 171.730469 188.640625 C 171.472656 190.457031 171.472656 190.457031 170.507812 192.046875 C 169.398438 193.199219 169.398438 193.199219 168.136719 193.714844 C 164.617188 194.160156 161.023438 194.011719 157.429688 194.011719 L 154.910156 194.050781 L 150.203125 194.050781 C 148.015625 193.863281 146.609375 193.605469 144.71875 192.492188 C 143.496094 190.085938 143.164062 188.082031 143.164062 185.378906 L 143.125 183.15625 L 143.125 178.339844 C 143.125 176.597656 143.050781 174.890625 143.050781 173.1875 C 143.050781 170.558594 143.050781 167.964844 143.015625 165.332031 C 143.015625 163.703125 143.015625 161.996094 143.015625 160.367188 L 142.976562 157.957031 C 143.015625 154.921875 143.050781 152.660156 144.386719 149.808594 C 146.089844 148.621094 146.089844 148.621094 148.425781 148.175781 " fill-opacity="1" fill-rule="nonzero"/><path fill="#388e3c" d="M 165.097656 35.382812 C 167.359375 36.125 167.359375 36.125 169.398438 37.902344 C 170.769531 40.238281 170.769531 40.238281 170.804688 42.722656 C 170.101562 45.019531 170.101562 45.019531 168.914062 46.464844 C 167.171875 47.910156 165.765625 48.539062 163.691406 49.28125 C 155.167969 52.652344 146.980469 58.359375 140.570312 64.917969 L 139.199219 66.324219 L 137.828125 66.324219 L 137.382812 67.398438 C 136.417969 69.140625 135.234375 70.660156 133.9375 72.214844 C 124.375 83.886719 119.558594 96.449219 116.261719 110.972656 C 115.296875 114.828125 115.296875 114.828125 114.148438 116.457031 C 111.851562 117.273438 110.074219 117.164062 107.703125 116.753906 C 106.332031 116.382812 106.332031 116.382812 104.960938 115.160156 C 103.960938 113.085938 103.476562 111.121094 103.664062 108.789062 C 107.070312 92.78125 112.964844 77.664062 123.414062 64.917969 L 124.449219 63.730469 C 128.339844 58.949219 132.230469 54.355469 137.160156 50.539062 L 138.9375 49.09375 C 142.941406 46.019531 147.054688 43.238281 151.386719 40.644531 L 152.871094 39.792969 C 156.722656 37.53125 160.539062 35.457031 165.097656 35.382812 " fill-opacity="1" fill-rule="nonzero"/><path fill="#33333b" d="M 159.726562 300.136719 L 166.765625 300.136719 C 169.101562 300.136719 171.359375 300.136719 173.621094 300.136719 C 175.511719 300.097656 177.363281 300.097656 179.289062 300.097656 C 183.773438 300.097656 188.183594 300.097656 192.667969 300.097656 C 197.261719 300.097656 201.894531 300.097656 206.488281 300.097656 C 210.453125 300.097656 214.378906 300.097656 218.34375 300.097656 C 220.714844 300.097656 223.089844 300.097656 225.421875 300.023438 C 228.089844 300.023438 230.683594 300.023438 233.351562 300.023438 C 234.5 300.023438 234.5 300.023438 235.722656 300.023438 L 239.800781 300.023438 C 241.617188 300.210938 242.652344 300.617188 244.171875 301.582031 L 245.542969 303.617188 C 245.285156 305.507812 245.285156 305.507812 244.875 307.101562 L 243.578125 307.210938 C 233.128906 308.507812 222.71875 309.878906 212.304688 311.363281 L 210.082031 311.621094 C 200.96875 312.882812 191.816406 314.179688 182.699219 315.476562 L 179.996094 315.882812 C 175.695312 316.476562 171.398438 317.105469 167.0625 317.734375 L 160.207031 318.699219 L 158.207031 318.996094 L 156.464844 319.21875 C 154.984375 319.402344 154.984375 319.402344 152.945312 319.402344 C 152.316406 314.4375 151.722656 309.363281 152.242188 304.359375 C 153.539062 302.171875 153.539062 302.171875 154.984375 300.914062 C 156.722656 300.023438 157.835938 300.136719 159.726562 300.136719 M 244.171875 322.144531 C 244.355469 324.367188 244.542969 326.59375 244.652344 328.777344 L 244.800781 330.667969 C 244.988281 333.558594 244.988281 335.597656 243.988281 338.339844 L 242.800781 340.042969 C 240.726562 340.671875 239.390625 340.785156 237.207031 340.785156 L 234.984375 340.785156 L 232.574219 340.746094 L 229.980469 340.746094 C 227.683594 340.746094 225.347656 340.746094 223.015625 340.746094 L 218.679688 340.671875 C 214.121094 340.671875 209.601562 340.636719 205.042969 340.597656 C 199.816406 340.597656 194.554688 340.5625 189.332031 340.5625 C 185.257812 340.523438 181.21875 340.523438 177.179688 340.449219 C 174.769531 340.449219 172.324219 340.449219 169.914062 340.449219 C 167.210938 340.449219 164.503906 340.414062 161.800781 340.375 L 159.390625 340.414062 L 157.167969 340.375 L 155.242188 340.375 L 153.613281 340.042969 C 152.390625 338.746094 152.390625 338.746094 151.574219 337.261719 C 151.796875 335.375 151.796875 335.375 152.242188 333.816406 C 162.726562 332.222656 173.214844 330.742188 183.699219 329.332031 C 191.257812 328.332031 198.742188 327.296875 206.230469 326.222656 L 208.898438 325.886719 C 213.269531 325.257812 217.679688 324.628906 222.050781 324.035156 L 226.941406 323.332031 L 229.203125 322.996094 C 232.464844 322.515625 235.761719 322.070312 239.058594 321.699219 L 240.726562 321.550781 C 242.132812 321.476562 242.132812 321.476562 244.171875 322.144531 " fill-opacity="1" fill-rule="nonzero"/><path fill="#33333b" d="M 179.03125 354.417969 C 182.773438 354.382812 186.554688 354.382812 190.332031 354.382812 C 191.59375 354.382812 192.851562 354.382812 194.113281 354.382812 C 202.855469 354.34375 211.492188 354.566406 220.199219 355.085938 C 218.605469 359.3125 216.085938 361.867188 212.601562 364.71875 C 208.527344 367.09375 204.5625 368.203125 199.855469 368.316406 C 195.816406 368.277344 192.296875 367.757812 188.628906 366.089844 C 184.515625 363.570312 181.511719 360.609375 179.03125 356.457031 Z M 179.03125 354.417969 " fill-opacity="1" fill-rule="nonzero"/></svg>