<svg xmlns="http://www.w3.org/2000/svg" xmlns:xlink="http://www.w3.org/1999/xlink" width="512" zoomAndPan="magnify" viewBox="0 0 384 383.999986" height="512" preserveAspectRatio="xMidYMid meet" version="1.0"><path fill="#000000" d="M 246.289062 12.964844 L 247.3125 13.40625 C 258.484375 18.300781 268.925781 25.292969 277.894531 33.550781 C 278.675781 34.269531 279.472656 34.957031 280.285156 35.644531 C 283.742188 38.667969 286.953125 41.957031 289.800781 45.5625 C 290.679688 46.664062 291.59375 47.726562 292.515625 48.789062 C 305.828125 64.835938 314.058594 84.515625 317.742188 104.929688 C 320.988281 124.394531 319.253906 144.273438 313.632812 163.101562 C 313.527344 163.460938 313.417969 163.820312 313.308594 164.191406 C 308.152344 181.175781 299.332031 196.726562 287.882812 210.242188 L 286.824219 211.507812 C 285.140625 213.519531 283.4375 215.507812 281.671875 217.445312 C 280.277344 218.980469 278.964844 220.558594 277.6875 222.191406 C 277.039062 223.003906 276.375 223.808594 275.699219 224.597656 C 262.933594 239.652344 253.726562 257.816406 249.855469 277.1875 L 249.578125 278.546875 C 249.351562 279.8125 249.199219 281.0625 249.0625 282.339844 L 248.9375 283.3125 C 248.46875 286.980469 248.46875 286.980469 248.667969 290.65625 C 249.40625 291.867188 250.070312 292.394531 251.246094 293.164062 C 252.96875 294.320312 253.976562 296.015625 255.003906 297.789062 C 256.859375 301.710938 257.234375 305.269531 257.0625 309.574219 C 256.855469 311.960938 255.914062 314.109375 254.917969 316.261719 L 254.609375 317.199219 C 255.113281 318.40625 255.113281 318.40625 255.796875 319.574219 C 256.125 320.882812 256.246094 322.109375 256.257812 323.457031 L 256.269531 324.566406 L 256.273438 325.753906 L 256.28125 326.996094 C 256.285156 327.859375 256.285156 328.726562 256.289062 329.589844 C 256.292969 330.902344 256.304688 332.214844 256.316406 333.523438 C 256.320312 334.367188 256.320312 335.210938 256.324219 336.054688 L 256.339844 337.230469 C 256.328125 340.378906 255.78125 343.273438 254.4375 346.136719 C 252.289062 349.496094 250.167969 352.007812 246.6875 354.039062 C 243.179688 355.617188 239.84375 356.066406 236.039062 356.242188 L 234.984375 356.292969 C 234.132812 356.335938 233.277344 356.375 232.425781 356.414062 L 232.101562 357.421875 C 230.300781 362.773438 227.933594 367.652344 224.105469 371.867188 L 223.132812 372.949219 C 218.878906 377.449219 213.777344 380.53125 207.867188 382.417969 C 201.640625 384.265625 194.917969 384.480469 188.578125 383.082031 C 181.9375 381.453125 176.015625 378.128906 171.023438 373.449219 C 166.933594 369.148438 164.089844 364.058594 161.996094 358.542969 C 161.71875 357.828125 161.421875 357.121094 161.121094 356.414062 C 160.105469 355.910156 159.359375 355.957031 158.222656 355.9375 C 157.796875 355.925781 157.371094 355.914062 156.929688 355.902344 C 156.039062 355.882812 155.148438 355.863281 154.253906 355.847656 C 151.015625 355.757812 148.242188 355.285156 145.308594 353.882812 C 141.988281 351.808594 139.613281 349.90625 137.582031 346.5 C 135.792969 343.132812 135.15625 340.050781 135.210938 336.277344 C 135.3125 333.644531 135.699219 331.28125 137.09375 329.003906 C 137.441406 328.476562 137.808594 327.957031 138.1875 327.453125 L 138.539062 326.707031 C 138.363281 324.878906 137.597656 323.21875 136.929688 321.523438 C 135.949219 318.472656 136.089844 315.347656 136.089844 312.171875 L 136.074219 310.726562 C 136.066406 305.8125 136.636719 301.390625 138.9375 296.996094 C 139.988281 295.335938 141.042969 293.859375 142.707031 292.785156 C 143.867188 292.015625 144.546875 291.457031 145.273438 290.261719 C 145.664062 287.640625 144.960938 284.910156 144.484375 282.339844 C 144.339844 281.5 144.199219 280.660156 144.058594 279.824219 C 140.371094 258.746094 130.914062 239.976562 117.261719 223.601562 C 116.175781 222.3125 115.078125 221.027344 113.980469 219.75 L 112.832031 218.402344 L 111.652344 217.023438 L 111.054688 216.324219 C 110.042969 215.144531 109.023438 213.972656 107.988281 212.808594 C 95.882812 199.160156 86.703125 183.488281 80.703125 166.269531 L 80.367188 165.335938 C 78.847656 161.09375 77.824219 156.75 76.867188 152.355469 L 76.691406 151.574219 C 74.898438 143.4375 74.160156 135.253906 74.210938 126.933594 C 74.21875 125.664062 74.210938 124.398438 74.203125 123.132812 C 74.195312 115.390625 74.921875 107.703125 76.621094 100.140625 L 76.925781 98.753906 C 79.359375 88.089844 83.046875 77.675781 88.230469 68.027344 L 88.667969 67.191406 C 92.316406 60.257812 96.730469 53.875 101.699219 47.824219 L 102.214844 47.183594 C 104.839844 43.941406 107.699219 40.953125 110.636719 37.996094 L 111.671875 36.949219 C 114.035156 34.597656 116.519531 32.46875 119.128906 30.394531 C 119.578125 30.027344 120.027344 29.65625 120.476562 29.289062 C 126.589844 24.371094 133.175781 20.164062 140.125 16.53125 L 140.925781 16.105469 C 173.535156 -1.007812 212.667969 -1.617188 246.289062 12.964844 M 141.488281 31.410156 C 138.429688 33.316406 135.476562 35.359375 132.597656 37.527344 L 131.90625 38.046875 C 124.335938 43.761719 116.910156 50.539062 111.207031 58.125 L 110.59375 58.917969 C 107.308594 63.175781 104.390625 67.527344 101.8125 72.25 C 101.3125 73.15625 100.804688 74.0625 100.292969 74.960938 C 91.535156 90.683594 87.582031 109.195312 87.84375 127.097656 C 88.421875 148.503906 94.441406 168.148438 105.398438 186.460938 C 108.886719 192.023438 112.90625 197.3125 117.148438 202.320312 L 118.167969 203.53125 C 119.875 205.558594 121.59375 207.574219 123.324219 209.582031 C 138.050781 226.710938 149.855469 245.476562 155.5 267.53125 L 155.710938 268.339844 C 157.386719 274.785156 158.136719 281.273438 159.140625 287.882812 L 234.800781 287.882812 L 235.988281 277.585938 C 239.628906 255.648438 249.011719 235.824219 262.925781 218.558594 C 264.726562 216.375 266.574219 214.234375 268.421875 212.089844 C 277.019531 202.105469 285.003906 192.050781 291.449219 180.53125 L 291.964844 179.628906 C 298.121094 168.761719 302.113281 156.394531 304.125 144.085938 L 304.257812 143.285156 C 307.285156 124.363281 305.273438 104.5 298.515625 86.621094 C 297.5625 84.214844 296.515625 81.855469 295.410156 79.515625 L 294.996094 78.640625 C 294.121094 76.796875 293.199219 74.976562 292.242188 73.179688 L 291.867188 72.472656 C 285.976562 61.523438 277.628906 51.042969 268.078125 43.070312 L 267.476562 42.554688 C 253.011719 30.144531 235.65625 21.855469 216.976562 18.113281 C 191.449219 13.617188 163.753906 17.828125 141.488281 31.410156 M 152.40625 302.144531 C 151.476562 302.855469 151.09375 303.519531 150.425781 304.523438 C 149.910156 306.269531 150.011719 308.015625 150.078125 309.816406 L 150.105469 310.765625 C 150.136719 311.761719 150.167969 312.761719 150.203125 313.757812 L 150.265625 315.789062 C 150.316406 317.449219 150.367188 319.105469 150.425781 320.761719 C 151.640625 321.136719 152.542969 321.160156 153.800781 320.976562 L 154.902344 320.824219 L 156.121094 320.640625 L 157.449219 320.453125 C 158.6875 320.273438 159.925781 320.09375 161.167969 319.914062 C 162.523438 319.714844 163.882812 319.523438 165.242188 319.328125 C 167.429688 319.015625 169.617188 318.703125 171.808594 318.390625 C 179.804688 317.242188 187.804688 316.105469 195.804688 314.980469 C 198.25 314.636719 200.695312 314.289062 203.140625 313.941406 C 205.945312 313.542969 208.753906 313.144531 211.5625 312.75 L 212.933594 312.554688 C 218.078125 311.835938 223.222656 311.160156 228.378906 310.5625 L 229.8125 310.394531 C 232.078125 310.136719 234.339844 309.882812 236.605469 309.636719 L 237.839844 309.5 C 238.601562 309.414062 239.359375 309.332031 240.121094 309.253906 L 241.132812 309.136719 L 242.011719 309.042969 L 242.722656 308.878906 L 243.515625 308.085938 C 243.683594 306.75 243.683594 306.75 243.515625 305.3125 C 242.839844 303.859375 241.949219 302.800781 240.742188 301.75 C 239.230469 301.242188 237.804688 301.296875 236.226562 301.300781 L 235.1875 301.296875 C 234.03125 301.296875 232.875 301.292969 231.71875 301.296875 L 229.238281 301.292969 C 226.988281 301.289062 224.738281 301.285156 222.488281 301.285156 C 220.609375 301.285156 218.734375 301.285156 216.855469 301.285156 C 212.425781 301.28125 207.996094 301.277344 203.570312 301.28125 C 198.996094 301.277344 194.425781 301.277344 189.855469 301.269531 C 185.933594 301.265625 182.011719 301.261719 178.089844 301.261719 C 175.746094 301.261719 173.40625 301.261719 171.0625 301.257812 C 168.855469 301.253906 166.652344 301.253906 164.449219 301.253906 C 163.640625 301.257812 162.832031 301.253906 162.023438 301.253906 C 160.917969 301.25 159.8125 301.25 158.707031 301.253906 L 157.738281 301.25 C 155.8125 301.261719 154.226562 301.507812 152.40625 302.144531 M 233.304688 323.457031 C 232.714844 323.535156 232.121094 323.613281 231.53125 323.6875 C 229.929688 323.898438 228.324219 324.109375 226.722656 324.320312 C 225.367188 324.496094 224.015625 324.675781 222.660156 324.851562 C 203.539062 327.359375 184.421875 329.921875 165.328125 332.648438 L 164.183594 332.8125 C 159.328125 333.507812 154.476562 334.246094 149.632812 335.023438 C 149.15625 336.457031 149.109375 337.476562 149.234375 338.984375 C 149.851562 340.320312 149.851562 340.320312 150.820312 341.363281 C 152.597656 342.34375 154.328125 342.265625 156.304688 342.257812 C 156.65625 342.261719 157.011719 342.261719 157.375 342.261719 C 158.558594 342.265625 159.738281 342.265625 160.921875 342.265625 L 163.464844 342.269531 C 165.769531 342.277344 168.070312 342.277344 170.375 342.273438 C 172.296875 342.273438 174.21875 342.277344 176.140625 342.277344 C 180.671875 342.28125 185.207031 342.28125 189.738281 342.28125 C 194.417969 342.277344 199.097656 342.28125 203.773438 342.289062 C 207.789062 342.296875 211.804688 342.300781 215.820312 342.296875 C 218.21875 342.296875 220.617188 342.300781 223.015625 342.304688 C 225.273438 342.308594 227.527344 342.308594 229.78125 342.304688 C 230.609375 342.304688 231.4375 342.304688 232.269531 342.308594 C 233.398438 342.3125 234.527344 342.308594 235.65625 342.304688 L 236.652344 342.3125 C 238.09375 342.296875 239.003906 342.230469 240.324219 341.601562 C 241.371094 340.785156 241.816406 340.222656 242.328125 338.984375 C 242.480469 337.734375 242.46875 336.5 242.445312 335.238281 L 242.4375 334.15625 C 242.433594 333.015625 242.417969 331.878906 242.402344 330.742188 C 242.398438 329.96875 242.390625 329.195312 242.386719 328.421875 C 242.371094 326.527344 242.351562 324.636719 242.328125 322.746094 C 239.28125 322.632812 236.320312 323.058594 233.304688 323.457031 M 176.171875 356.019531 C 177.203125 359.277344 179.222656 361.632812 181.71875 363.941406 L 182.289062 364.503906 C 185.039062 367.074219 188.355469 368.574219 191.996094 369.4375 C 196.636719 370.292969 200.960938 370.054688 205.488281 368.695312 C 209.359375 367.273438 212.210938 364.921875 214.996094 361.960938 C 216.578125 360.039062 217.71875 358.484375 218.164062 356.019531 C 212.023438 355.585938 205.890625 355.5625 199.738281 355.570312 C 198.34375 355.574219 196.953125 355.574219 195.558594 355.570312 C 189.089844 355.5625 182.636719 355.664062 176.171875 356.019531 " fill-opacity="1" fill-rule="nonzero"/><path fill="#388e3c" d="M 231.683594 105.449219 L 233.097656 105.445312 C 234.085938 105.445312 235.070312 105.449219 236.058594 105.453125 C 237.570312 105.460938 239.078125 105.453125 240.589844 105.445312 C 241.546875 105.445312 242.507812 105.449219 243.46875 105.449219 L 244.835938 105.441406 C 247.949219 105.476562 247.949219 105.476562 249.511719 106.367188 C 250.242188 107.234375 250.644531 107.777344 251.042969 108.832031 C 251.121094 109.949219 251.152344 111.027344 251.148438 112.148438 L 251.15625 113.171875 C 251.160156 114.304688 251.160156 115.4375 251.160156 116.574219 C 251.160156 117.382812 251.164062 118.195312 251.167969 119.007812 C 251.171875 121.214844 251.175781 123.421875 251.175781 125.628906 C 251.175781 127.472656 251.179688 129.316406 251.183594 131.15625 C 251.1875 135.5 251.191406 139.847656 251.191406 144.191406 C 251.191406 148.675781 251.199219 153.160156 251.210938 157.644531 C 251.21875 161.492188 251.226562 165.339844 251.226562 169.191406 C 251.226562 171.488281 251.226562 173.789062 251.234375 176.085938 C 251.242188 178.25 251.242188 180.410156 251.238281 182.574219 C 251.238281 183.367188 251.238281 184.160156 251.242188 184.953125 C 251.25 186.039062 251.246094 187.121094 251.238281 188.203125 L 251.25 189.15625 C 251.230469 190.75 251.085938 191.542969 250.304688 192.980469 C 249.457031 194 249.457031 194 248.433594 194.734375 C 246.5625 195.363281 244.839844 195.359375 242.875 195.347656 L 241.652344 195.351562 C 240.800781 195.351562 239.953125 195.347656 239.101562 195.34375 C 237.804688 195.335938 236.507812 195.34375 235.210938 195.351562 C 234.382812 195.351562 233.550781 195.347656 232.722656 195.347656 L 231.554688 195.351562 C 229.296875 195.328125 227.6875 195.085938 225.691406 194 C 224.773438 193.082031 224.21875 192.421875 223.871094 191.167969 C 223.660156 189.699219 223.652344 188.246094 223.65625 186.761719 L 223.652344 185.769531 C 223.648438 184.667969 223.644531 183.570312 223.644531 182.46875 L 223.640625 180.101562 C 223.636719 177.960938 223.632812 175.820312 223.628906 173.675781 C 223.628906 172.339844 223.628906 171 223.625 169.664062 C 223.621094 165.476562 223.617188 161.292969 223.617188 157.105469 C 223.613281 152.273438 223.605469 147.441406 223.59375 142.605469 C 223.585938 138.871094 223.582031 135.136719 223.582031 131.398438 C 223.582031 129.167969 223.578125 126.9375 223.570312 124.707031 C 223.566406 122.609375 223.566406 120.507812 223.566406 118.410156 C 223.570312 117.640625 223.566406 116.871094 223.5625 116.101562 C 223.558594 115.050781 223.558594 114 223.566406 112.949219 L 223.554688 112.023438 C 223.566406 110.613281 223.722656 109.59375 224.265625 108.285156 C 224.898438 107.246094 224.898438 107.246094 225.664062 106.316406 C 227.597656 105.273438 229.515625 105.433594 231.683594 105.449219 " fill-opacity="1" fill-rule="nonzero"/><path fill="#81c784" d="M 242.242188 51.671875 C 242.808594 51.664062 243.375 51.65625 243.941406 51.644531 C 244.742188 51.628906 245.546875 51.621094 246.351562 51.617188 L 247.761719 51.601562 C 249.0625 51.785156 249.0625 51.785156 250.371094 52.492188 C 251.441406 53.371094 251.441406 53.371094 251.96875 54.164062 C 253.523438 58.84375 252.886719 64.742188 253.023438 69.613281 L 253.058594 70.746094 C 253.089844 71.671875 253.109375 72.597656 253.125 73.523438 L 253.152344 75.03125 C 253.007812 76.519531 252.609375 77.453125 251.835938 78.722656 C 250.941406 79.53125 250.140625 80.164062 249.0625 80.703125 C 247.859375 80.851562 246.703125 80.84375 245.496094 80.703125 C 244.160156 80.109375 244.160156 80.109375 243.121094 79.121094 C 242.003906 77.140625 241.734375 75.015625 241.535156 72.78125 C 239.609375 74.398438 237.761719 76.097656 235.988281 77.882812 L 235.296875 78.570312 C 234.15625 79.714844 233.0625 80.875 232.015625 82.105469 C 229.492188 85.027344 226.664062 87.675781 223.921875 90.386719 C 223.160156 91.140625 222.402344 91.894531 221.640625 92.648438 L 220.949219 93.332031 C 219.800781 94.476562 218.699219 95.640625 217.640625 96.871094 C 215.960938 98.8125 214.164062 100.628906 212.355469 102.453125 L 211.265625 103.550781 C 210.511719 104.3125 209.753906 105.074219 208.996094 105.835938 C 208.03125 106.808594 207.066406 107.78125 206.105469 108.757812 C 205.179688 109.699219 204.25 110.628906 203.320312 111.5625 L 202.28125 112.625 L 201.300781 113.601562 L 200.445312 114.460938 C 199.390625 115.289062 198.453125 115.613281 197.167969 115.960938 C 195.207031 116.230469 193.351562 116.136719 191.5 115.414062 C 189.175781 114.257812 187.1875 112.574219 185.171875 110.957031 C 183.628906 109.726562 182.054688 108.527344 180.484375 107.328125 C 179.804688 106.808594 179.128906 106.28125 178.460938 105.75 C 177.683594 105.132812 177.683594 105.132812 176.570312 104.472656 C 175.769531 104.511719 175.769531 104.511719 174.984375 104.867188 C 174.257812 105.421875 174.257812 105.421875 173.570312 106.148438 L 172.738281 106.976562 L 171.84375 107.890625 L 170.886719 108.847656 C 169.84375 109.894531 168.804688 110.949219 167.765625 112 C 167.042969 112.726562 166.320312 113.453125 165.597656 114.179688 C 163.496094 116.289062 161.398438 118.40625 159.304688 120.519531 C 156.453125 123.394531 153.601562 126.269531 150.746094 129.136719 C 149.675781 130.210938 148.613281 131.289062 147.546875 132.363281 L 145.59375 134.332031 L 144.695312 135.246094 L 143.867188 136.074219 L 143.152344 136.796875 C 142.5 137.351562 142.5 137.351562 141.3125 137.75 C 140.105469 137.886719 138.953125 137.898438 137.75 137.75 C 136.414062 137.082031 135.609375 136.429688 134.628906 135.320312 C 134.082031 133.921875 134.039062 132.742188 134.023438 131.25 C 134.226562 129.925781 134.714844 129.015625 135.371094 127.84375 C 136.226562 126.863281 136.226562 126.863281 137.210938 125.90625 L 138.296875 124.832031 L 139.433594 123.734375 C 140.167969 123.015625 140.90625 122.292969 141.640625 121.570312 L 142.628906 120.613281 C 143.4375 119.785156 144.214844 118.929688 144.964844 118.054688 C 146.644531 116.117188 148.457031 114.320312 150.277344 112.519531 L 151.363281 111.4375 C 152.695312 110.113281 154.027344 108.789062 155.359375 107.464844 C 156.671875 106.164062 157.980469 104.859375 159.289062 103.554688 L 160.320312 102.535156 C 162.25 100.613281 164.101562 98.617188 165.875 96.550781 C 168.050781 94.167969 170.289062 92.042969 173.402344 91.003906 C 175.0625 90.789062 176.648438 90.796875 178.265625 91.265625 C 180.910156 92.457031 183.136719 94.3125 185.402344 96.085938 C 188.308594 98.359375 191.335938 100.4375 194.394531 102.492188 C 196.109375 101.832031 197.253906 100.535156 198.515625 99.261719 L 199.277344 98.503906 C 200.105469 97.675781 200.929688 96.84375 201.757812 96.015625 L 203.488281 94.28125 C 204.699219 93.070312 205.910156 91.859375 207.117188 90.644531 C 208.660156 89.09375 210.207031 87.546875 211.753906 86 C 212.945312 84.808594 214.140625 83.613281 215.332031 82.417969 C 215.898438 81.847656 216.46875 81.277344 217.039062 80.707031 C 217.839844 79.90625 218.636719 79.105469 219.4375 78.300781 L 220.140625 77.597656 C 221.570312 76.15625 222.925781 74.664062 224.25 73.117188 C 224.902344 72.378906 225.582031 71.6875 226.285156 71 C 228.359375 68.957031 230.238281 66.753906 232.027344 64.460938 L 231.074219 64.34375 C 229.183594 64.078125 227.585938 63.820312 225.863281 62.976562 C 224.738281 61.9375 224.222656 61.15625 223.710938 59.710938 C 223.535156 58.371094 223.554688 57.371094 224.011719 56.097656 C 224.582031 54.863281 225.113281 53.9375 226.113281 53 C 230.34375 50.679688 237.457031 51.722656 242.242188 51.671875 M 191.265625 129.667969 L 192.542969 129.664062 C 193.433594 129.664062 194.320312 129.664062 195.210938 129.671875 C 196.570312 129.675781 197.929688 129.671875 199.289062 129.664062 C 200.152344 129.664062 201.019531 129.664062 201.886719 129.667969 L 203.113281 129.660156 C 204.828125 129.675781 206.085938 129.75 207.699219 130.378906 C 208.691406 131.035156 209.238281 131.578125 209.84375 132.597656 C 210.269531 133.867188 210.292969 134.777344 210.300781 136.109375 L 210.308594 137.578125 L 210.3125 139.191406 L 210.320312 140.890625 C 210.328125 142.75 210.332031 144.609375 210.335938 146.472656 L 210.339844 148.390625 C 210.347656 151.402344 210.355469 154.410156 210.355469 157.417969 C 210.359375 160.890625 210.371094 164.363281 210.386719 167.835938 C 210.398438 170.519531 210.40625 173.203125 210.40625 175.886719 C 210.40625 177.492188 210.410156 179.09375 210.421875 180.695312 C 210.429688 182.203125 210.433594 183.714844 210.429688 185.222656 C 210.429688 185.773438 210.429688 186.328125 210.4375 186.878906 C 210.472656 191 210.472656 191 209.925781 192.46875 C 209.394531 193.324219 208.78125 193.914062 207.957031 194.484375 C 205.722656 195.25 203.640625 195.359375 201.289062 195.347656 L 200.097656 195.351562 C 199.269531 195.351562 198.441406 195.347656 197.617188 195.34375 C 196.355469 195.335938 195.09375 195.34375 193.832031 195.351562 C 193.023438 195.351562 192.21875 195.347656 191.410156 195.347656 L 190.277344 195.351562 C 188.046875 195.328125 186.4375 195.125 184.492188 194 C 183.636719 193.117188 183.636719 193.117188 182.90625 192.019531 C 182.707031 190.867188 182.707031 190.867188 182.707031 189.570312 L 182.691406 188.078125 L 182.703125 186.449219 C 182.699219 185.875 182.699219 185.300781 182.695312 184.726562 C 182.6875 183.171875 182.691406 181.613281 182.695312 180.058594 C 182.699219 178.425781 182.695312 176.796875 182.691406 175.167969 C 182.691406 172.429688 182.691406 169.691406 182.703125 166.953125 C 182.710938 163.789062 182.707031 160.625 182.699219 157.460938 C 182.691406 154.742188 182.691406 152.023438 182.695312 149.308594 C 182.695312 147.683594 182.695312 146.0625 182.691406 144.4375 C 182.6875 142.914062 182.691406 141.386719 182.699219 139.863281 C 182.703125 139.300781 182.699219 138.742188 182.699219 138.183594 C 182.671875 133.992188 182.671875 133.992188 183.238281 132.542969 C 183.859375 131.566406 184.566406 130.960938 185.503906 130.28125 C 187.4375 129.636719 189.238281 129.65625 191.265625 129.667969 M 149.691406 149.882812 L 150.855469 149.882812 C 151.667969 149.886719 152.480469 149.890625 153.292969 149.894531 C 154.527344 149.90625 155.761719 149.902344 157 149.902344 C 157.789062 149.902344 158.582031 149.90625 159.371094 149.910156 L 160.480469 149.90625 C 162.671875 149.933594 164.574219 150.148438 166.667969 150.820312 C 167.695312 151.695312 168.441406 152.386719 169.042969 153.59375 C 169.089844 154.792969 169.109375 155.980469 169.113281 157.179688 L 169.121094 158.304688 C 169.128906 159.539062 169.132812 160.773438 169.136719 162.007812 L 169.140625 163.28125 C 169.148438 165.507812 169.15625 167.734375 169.160156 169.960938 C 169.164062 172.261719 169.179688 174.566406 169.195312 176.867188 C 169.203125 178.636719 169.207031 180.402344 169.207031 182.171875 C 169.210938 183.019531 169.214844 183.867188 169.222656 184.71875 C 169.230469 185.90625 169.230469 187.09375 169.230469 188.28125 L 169.246094 189.34375 C 169.238281 190.261719 169.203125 191.113281 169.042969 192.019531 C 168.351562 193.179688 167.839844 193.785156 166.671875 194.449219 C 164.304688 195.191406 162.117188 195.363281 159.644531 195.347656 L 158.449219 195.351562 C 157.621094 195.351562 156.796875 195.347656 155.96875 195.34375 C 154.707031 195.335938 153.445312 195.34375 152.183594 195.351562 C 151.375 195.351562 150.570312 195.347656 149.765625 195.347656 L 148.625 195.351562 C 146.980469 195.335938 145.816406 195.246094 144.273438 194.632812 C 143.261719 193.976562 142.71875 193.445312 142.105469 192.414062 C 141.585938 190.847656 141.644531 189.351562 141.640625 187.71875 L 141.632812 186.628906 C 141.625 185.441406 141.617188 184.25 141.617188 183.0625 L 141.609375 181.832031 C 141.601562 179.679688 141.597656 177.53125 141.59375 175.378906 C 141.589844 173.160156 141.574219 170.941406 141.558594 168.722656 C 141.546875 167.011719 141.546875 165.304688 141.542969 163.597656 C 141.542969 162.777344 141.539062 161.960938 141.53125 161.144531 C 141.523438 159.996094 141.519531 158.851562 141.523438 157.703125 L 141.507812 156.683594 C 141.523438 155.0625 141.664062 153.855469 142.449219 152.417969 C 143.292969 151.21875 143.292969 151.21875 144.332031 150.457031 C 146.144531 149.875 147.796875 149.867188 149.691406 149.886719 " fill-opacity="1" fill-rule="nonzero"/><path fill="#388e3c" d="M 163.496094 37.921875 C 165.117188 38.417969 166.050781 38.886719 167.234375 40.101562 C 167.960938 41.726562 168.042969 42.980469 168.066406 44.742188 C 167.78125 46.226562 167.226562 47.054688 166.269531 48.222656 C 165.125 48.949219 165.125 48.949219 163.792969 49.558594 L 162.300781 50.265625 L 161.515625 50.628906 C 153.511719 54.335938 146.308594 58.855469 139.8125 64.851562 C 139.050781 65.542969 138.273438 66.214844 137.476562 66.863281 C 135.945312 68.175781 134.671875 69.644531 133.390625 71.195312 L 132.867188 71.824219 C 123.972656 82.550781 117.253906 95.167969 114.683594 108.976562 L 114.4375 110.273438 C 114.285156 111.105469 114.144531 111.9375 114.015625 112.773438 C 113.519531 115.550781 113.519531 115.550781 112.554688 116.746094 C 111.398438 117.777344 110.546875 118.296875 109.054688 118.757812 C 107.316406 118.726562 105.984375 118.410156 104.472656 117.546875 C 103.617188 116.644531 103.042969 115.875 102.492188 114.773438 C 102.242188 111.492188 102.667969 108.449219 103.433594 105.265625 L 103.75 103.933594 C 107.691406 88.039062 115.226562 73.261719 126.582031 61.40625 C 127.003906 60.972656 127.421875 60.539062 127.84375 60.105469 L 128.578125 59.339844 C 132.070312 55.710938 135.625 52.339844 139.730469 49.410156 L 140.523438 48.839844 C 157.351562 36.9375 157.351562 36.9375 163.496094 37.921875 " fill-opacity="1" fill-rule="nonzero"/></svg>