<svg xmlns="http://www.w3.org/2000/svg" xmlns:xlink="http://www.w3.org/1999/xlink" width="512" zoomAndPan="magnify" viewBox="0 0 384 383.999986" height="512" preserveAspectRatio="xMidYMid meet" version="1.0"><path fill="#ffffff" d="M 251.226562 13.097656 C 272.527344 23.542969 289.570312 38.992188 302.792969 58.589844 C 307.683594 65.996094 311.316406 73.480469 314.167969 81.890625 L 314.757812 83.628906 C 315.351562 85.371094 315.90625 87.039062 316.539062 88.78125 L 317.054688 90.335938 C 323.058594 107.820312 323.503906 128.972656 320.277344 147.085938 C 319.613281 150.308594 318.761719 153.460938 317.910156 156.644531 C 317.648438 157.683594 317.390625 158.683594 317.128906 159.757812 C 311.683594 180.871094 299.832031 199.949219 285.199219 215.878906 C 282.273438 219.140625 279.640625 222.660156 276.972656 226.105469 C 276.121094 227.214844 275.269531 228.289062 274.457031 229.402344 C 261.5625 246.035156 254.191406 264.445312 251.007812 285.191406 C 250.859375 287.117188 250.820312 288.5625 251.339844 290.375 C 252.597656 291.96875 253.96875 293.191406 255.488281 294.488281 C 257.414062 296.414062 258.265625 298.378906 259.15625 300.933594 C 259.859375 303.859375 260.042969 306.5625 259.601562 309.601562 C 259.15625 311.195312 258.5625 312.75 257.894531 314.234375 C 257.414062 315.789062 257.414062 315.789062 257.859375 317.566406 C 258.488281 321.566406 258.414062 325.605469 258.414062 329.570312 C 258.414062 331.125 258.453125 332.679688 258.453125 334.238281 C 258.453125 335.238281 258.453125 336.238281 258.453125 337.238281 L 258.488281 339.941406 C 258.117188 343.421875 257.082031 345.941406 255.117188 348.867188 C 252.636719 351.832031 250.339844 353.609375 246.707031 355.054688 C 243.671875 355.980469 240.929688 356.316406 237.78125 356.242188 L 235.742188 356.242188 L 234.1875 356.203125 L 233.929688 357.648438 C 232.742188 362.871094 230.667969 366.464844 227.371094 370.613281 L 226.410156 371.949219 C 222.816406 376.617188 217.628906 379.503906 212.257812 381.839844 C 205.625 384.210938 199.367188 384.800781 192.363281 383.652344 C 184.585938 381.765625 178.621094 379.207031 172.769531 373.6875 C 169.730469 370.539062 166.839844 367.242188 165.765625 362.945312 C 165.101562 360.390625 164.691406 358.871094 162.914062 356.90625 C 159.988281 355.90625 157.023438 355.648438 153.949219 355.464844 C 150.652344 355.242188 148.28125 354.980469 145.429688 353.242188 C 142.019531 350.796875 139.761719 348.054688 137.613281 344.496094 C 136.132812 340.644531 136.5 336.273438 136.835938 332.234375 C 137.316406 330.421875 137.984375 329.085938 138.871094 327.421875 C 139.429688 326.085938 139.429688 326.085938 139.574219 324.679688 C 139.058594 323.382812 138.539062 322.085938 138.058594 320.789062 C 137.058594 317.714844 137.242188 314.566406 137.28125 311.304688 L 137.242188 309.269531 C 137.242188 304.933594 137.761719 301.230469 139.574219 297.230469 C 140.613281 295.488281 140.613281 295.488281 141.613281 294.226562 L 142.652344 292.894531 C 143.726562 291.746094 143.726562 291.746094 145.761719 290.375 C 147.429688 283.1875 144.464844 273.558594 142.503906 266.59375 C 136.835938 248.257812 126.609375 232.066406 113.683594 217.992188 C 110.976562 215.027344 108.496094 211.914062 106.015625 208.765625 L 104.347656 206.765625 C 90.417969 189.207031 81.785156 169.648438 77.191406 147.71875 L 76.675781 145.457031 C 72.671875 125.378906 75.414062 104.003906 81.527344 84.703125 C 86.863281 69.664062 95.046875 55.328125 105.902344 43.660156 C 107.234375 42.25 108.496094 40.769531 109.71875 39.324219 C 123.425781 23.65625 142.871094 13.320312 162.320312 6.613281 C 190.917969 -2.792969 224.222656 0.242188 251.226562 13.097656 " fill-opacity="1" fill-rule="nonzero"/><path fill="#33333b" d="M 251.226562 13.097656 C 272.527344 23.542969 289.570312 38.992188 302.792969 58.589844 C 307.683594 65.996094 311.316406 73.480469 314.167969 81.890625 L 314.757812 83.628906 C 315.351562 85.371094 315.90625 87.039062 316.539062 88.78125 L 317.054688 90.335938 C 323.058594 107.820312 323.503906 128.972656 320.277344 147.085938 C 319.613281 150.308594 318.761719 153.460938 317.910156 156.644531 C 317.648438 157.683594 317.390625 158.683594 317.128906 159.757812 C 311.683594 180.871094 299.832031 199.949219 285.199219 215.878906 C 282.273438 219.140625 279.640625 222.660156 276.972656 226.105469 C 276.121094 227.214844 275.269531 228.289062 274.457031 229.402344 C 261.5625 246.035156 254.191406 264.445312 251.007812 285.191406 C 250.859375 287.117188 250.820312 288.5625 251.339844 290.375 C 252.597656 291.96875 253.96875 293.191406 255.488281 294.488281 C 257.414062 296.414062 258.265625 298.378906 259.15625 300.933594 C 259.859375 303.859375 260.042969 306.5625 259.601562 309.601562 C 259.15625 311.195312 258.5625 312.75 257.894531 314.234375 C 257.414062 315.789062 257.414062 315.789062 257.859375 317.566406 C 258.488281 321.566406 258.414062 325.605469 258.414062 329.570312 C 258.414062 331.125 258.453125 332.679688 258.453125 334.238281 C 258.453125 335.238281 258.453125 336.238281 258.453125 337.238281 L 258.488281 339.941406 C 258.117188 343.421875 257.082031 345.941406 255.117188 348.867188 C 252.636719 351.832031 250.339844 353.609375 246.707031 355.054688 C 243.671875 355.980469 240.929688 356.316406 237.78125 356.242188 L 235.742188 356.242188 L 234.1875 356.203125 L 233.929688 357.648438 C 232.742188 362.871094 230.667969 366.464844 227.371094 370.613281 L 226.410156 371.949219 C 222.816406 376.617188 217.628906 379.503906 212.257812 381.839844 C 205.625 384.210938 199.367188 384.800781 192.363281 383.652344 C 184.585938 381.765625 178.621094 379.207031 172.769531 373.6875 C 169.730469 370.539062 166.839844 367.242188 165.765625 362.945312 C 165.101562 360.390625 164.691406 358.871094 162.914062 356.90625 C 159.988281 355.90625 157.023438 355.648438 153.949219 355.464844 C 150.652344 355.242188 148.28125 354.980469 145.429688 353.242188 C 142.019531 350.796875 139.761719 348.054688 137.613281 344.496094 C 136.132812 340.644531 136.5 336.273438 136.835938 332.234375 C 137.316406 330.421875 137.984375 329.085938 138.871094 327.421875 C 139.429688 326.085938 139.429688 326.085938 139.574219 324.679688 C 139.058594 323.382812 138.539062 322.085938 138.058594 320.789062 C 137.058594 317.714844 137.242188 314.566406 137.28125 311.304688 L 137.242188 309.269531 C 137.242188 304.933594 137.761719 301.230469 139.574219 297.230469 C 140.613281 295.488281 140.613281 295.488281 141.613281 294.226562 L 142.652344 292.894531 C 143.726562 291.746094 143.726562 291.746094 145.761719 290.375 C 147.429688 283.1875 144.464844 273.558594 142.503906 266.59375 C 136.835938 248.257812 126.609375 232.066406 113.683594 217.992188 C 110.976562 215.027344 108.496094 211.914062 106.015625 208.765625 L 104.347656 206.765625 C 90.417969 189.207031 81.785156 169.648438 77.191406 147.71875 L 76.675781 145.457031 C 72.671875 125.378906 75.414062 104.003906 81.527344 84.703125 C 86.863281 69.664062 95.046875 55.328125 105.902344 43.660156 C 107.234375 42.25 108.496094 40.769531 109.71875 39.324219 C 123.425781 23.65625 142.871094 13.320312 162.320312 6.613281 C 190.917969 -2.792969 224.222656 0.242188 251.226562 13.097656 M 142.390625 31.472656 C 135.796875 35.917969 129.574219 40.734375 123.832031 46.214844 L 122.757812 47.214844 C 109.976562 59.21875 100.421875 74.109375 95.011719 90.816406 C 92.34375 99.820312 90.121094 108.746094 90.046875 118.15625 L 90.046875 119.675781 C 90.046875 120.710938 90.046875 121.785156 90.046875 122.785156 C 90.046875 124.417969 90.011719 125.933594 90.011719 127.527344 C 89.972656 134.492188 90.75 140.902344 92.269531 147.71875 C 92.53125 149.308594 92.824219 150.867188 93.121094 152.421875 C 97.125 170.609375 106.828125 188.132812 119.238281 201.914062 C 120.792969 203.617188 122.203125 205.46875 123.535156 207.320312 L 125.203125 209.433594 L 126.574219 209.433594 L 127.019531 210.582031 C 128.203125 212.695312 129.722656 214.324219 131.316406 216.101562 C 135.835938 221.289062 139.464844 226.957031 143.019531 232.808594 L 143.800781 234.03125 C 153.097656 249.21875 159.765625 267.113281 160.726562 285.003906 L 160.875 286.300781 L 161.542969 286.929688 C 162.507812 287.003906 163.46875 287.042969 164.46875 287.042969 L 170.695312 287.042969 C 173.101562 287.042969 175.546875 287.042969 177.953125 287.042969 L 182.992188 287.042969 C 187.402344 287.003906 191.808594 287.003906 196.21875 287.003906 C 200.738281 287.003906 205.21875 287.003906 209.738281 287.003906 C 218.59375 287.003906 227.410156 286.929688 236.300781 286.929688 L 236.449219 285.707031 C 236.742188 283.855469 237.003906 281.964844 237.226562 280.078125 L 237.484375 278.1875 C 240.335938 258.222656 248.597656 238.699219 260.898438 222.734375 C 265.007812 217.472656 269.378906 212.359375 273.789062 207.359375 C 281.492188 198.46875 288.382812 189.023438 293.902344 178.613281 L 295.125 176.390625 C 303.5 160.609375 307.054688 143.050781 307.054688 125.34375 L 307.054688 122.675781 C 307.089844 105.300781 302.683594 87.742188 294.199219 72.554688 C 286.863281 59.886719 277.492188 48.179688 265.75 39.363281 L 264.675781 38.546875 C 248.929688 26.582031 231.484375 19.65625 211.960938 16.542969 C 187.734375 13.800781 163.210938 18.652344 142.390625 31.472656 " fill-opacity="1" fill-rule="nonzero"/><path fill="#4caf50" d="M 238.152344 104.265625 C 239.078125 104.265625 240.039062 104.226562 241.039062 104.226562 C 242.410156 104.191406 243.820312 104.191406 245.191406 104.152344 L 247.78125 104.117188 C 249.96875 104.558594 249.96875 104.558594 251.859375 105.78125 C 253.449219 107.96875 253.449219 107.96875 253.746094 109.597656 C 253.894531 111.671875 253.894531 113.820312 253.820312 115.894531 L 253.894531 118.339844 C 253.894531 120.972656 253.820312 123.636719 253.820312 126.304688 C 253.820312 128.15625 253.820312 130.011719 253.820312 131.863281 C 253.820312 135.753906 253.820312 139.605469 253.785156 143.496094 C 253.785156 147.941406 253.746094 152.421875 253.785156 156.867188 C 253.785156 161.238281 253.785156 165.535156 253.746094 169.832031 C 253.746094 171.648438 253.746094 173.5 253.746094 175.316406 C 253.746094 177.871094 253.746094 180.425781 253.710938 182.984375 L 253.710938 185.28125 C 253.710938 188.207031 253.671875 190.394531 252.523438 193.097656 C 251.339844 194.355469 251.339844 194.355469 249.300781 195.023438 C 246.117188 195.207031 242.96875 195.207031 239.78125 195.207031 C 238.484375 195.246094 238.484375 195.246094 237.113281 195.246094 L 234.558594 195.246094 L 232.222656 195.320312 C 230.113281 195.023438 230.113281 195.023438 228.222656 194.28125 C 226.667969 192.984375 226.667969 192.984375 225.925781 191.355469 C 225.074219 187.910156 225.113281 184.613281 225.113281 181.132812 L 225.113281 178.722656 C 225.074219 176.167969 225.074219 173.648438 225.074219 171.054688 L 225.074219 165.683594 C 225.074219 161.941406 225.074219 158.199219 225.074219 154.496094 C 225.074219 150.164062 225.039062 145.863281 225.039062 141.492188 C 225 137.34375 225 133.234375 225 129.046875 C 225 127.269531 225 125.492188 225 123.75 C 225 121.265625 225 118.824219 225 116.339844 L 224.925781 114.117188 C 225 112.265625 225.039062 110.488281 225.296875 108.636719 C 226.628906 106.488281 226.628906 106.488281 228.039062 105.226562 C 231.003906 103.746094 234.855469 104.339844 238.152344 104.265625 M 252.710938 51.734375 C 253.820312 53.179688 253.820312 53.179688 254.820312 55.144531 C 255.082031 57.515625 255.082031 57.515625 255.082031 60.179688 L 255.082031 61.589844 C 255.082031 62.625 255.082031 63.625 255.082031 64.625 C 255.082031 66.183594 255.082031 67.664062 255.082031 69.21875 C 255.082031 70.21875 255.082031 71.183594 255.082031 72.148438 L 255.082031 74.8125 C 254.820312 77.074219 254.820312 77.074219 253.894531 78.703125 C 252.710938 79.816406 252.710938 79.816406 250.414062 80.480469 C 247.929688 80.519531 247.929688 80.519531 246.003906 79.925781 L 244.523438 78.445312 C 244.042969 76.40625 243.855469 74.40625 243.820312 72.292969 C 241.558594 74.074219 239.558594 75.777344 237.742188 78 C 233.59375 82.816406 228.925781 87.222656 224.40625 91.707031 C 218.332031 97.671875 218.332031 97.671875 212.628906 104.003906 C 210.851562 106.042969 208.960938 108.003906 207.035156 109.894531 L 205.921875 111.117188 C 203.847656 113.191406 202.179688 114.710938 199.253906 115.488281 C 196.660156 115.710938 194.957031 115.710938 192.511719 114.636719 C 190.105469 113.304688 187.992188 111.710938 185.808594 110.007812 L 183.511719 108.226562 L 181.4375 106.597656 C 180.511719 105.894531 179.621094 105.226562 178.695312 104.558594 C 176.25 105.5625 174.730469 106.96875 172.878906 108.894531 L 171.0625 110.746094 L 170.0625 111.710938 C 169.101562 112.785156 168.101562 113.820312 167.0625 114.820312 C 164.246094 117.75 161.359375 120.675781 158.503906 123.601562 C 156.800781 125.378906 155.023438 127.195312 153.28125 128.972656 C 152.617188 129.640625 151.949219 130.34375 151.28125 131.011719 C 146.207031 136.382812 146.207031 136.382812 143.503906 137.34375 C 141.316406 137.640625 139.648438 137.457031 137.539062 136.863281 C 136.132812 135.382812 136.132812 135.382812 135.648438 134.046875 C 135.242188 132.269531 135.242188 131.011719 135.464844 129.230469 C 136.316406 127.898438 136.316406 127.898438 137.464844 126.675781 L 138.796875 125.230469 C 141.984375 121.972656 145.207031 118.710938 148.503906 115.527344 C 151.394531 112.671875 154.171875 109.746094 156.839844 106.636719 C 159.433594 103.707031 162.285156 100.929688 165.0625 98.078125 L 168.691406 94.449219 L 170.285156 92.816406 C 171.730469 91.558594 172.84375 90.816406 174.546875 90.148438 C 176.695312 89.816406 178.027344 89.742188 180.066406 90.148438 C 182.214844 91.222656 184.066406 92.59375 185.992188 94.078125 L 187.546875 95.1875 C 189.625 96.742188 191.660156 98.300781 193.625 100.042969 L 195.105469 101.078125 C 196.476562 101.003906 196.476562 101.003906 197.882812 100.410156 C 199.03125 99.523438 199.03125 99.523438 200.03125 98.449219 L 201.21875 97.1875 L 202.515625 95.855469 C 203.367188 94.964844 204.253906 94.078125 205.109375 93.1875 L 206.367188 91.929688 C 207.625 90.667969 208.960938 89.519531 210.332031 88.371094 C 213.109375 85.964844 215.554688 83.261719 218.035156 80.554688 C 220.332031 78 222.742188 75.519531 225.148438 73.109375 C 228.074219 70.21875 230.890625 67.183594 233.558594 64.035156 L 232.261719 63.8125 L 230.519531 63.476562 L 228.851562 63.109375 C 227.371094 62.664062 227.371094 62.664062 226 61.328125 C 225.554688 59.328125 225.296875 57.808594 225.296875 55.847656 C 226.039062 53.847656 226.039062 53.847656 227.371094 52.402344 C 231.371094 50.511719 235.707031 50.660156 240.039062 50.511719 L 242.375 50.402344 C 249.859375 50.140625 249.859375 50.140625 252.710938 51.734375 M 189.917969 128.789062 L 194.070312 128.789062 C 195.070312 128.789062 196.105469 128.789062 197.070312 128.789062 C 198.625 128.824219 200.144531 128.824219 201.664062 128.789062 C 202.664062 128.824219 203.625 128.824219 204.589844 128.824219 L 207.257812 128.824219 C 209.515625 129.230469 209.515625 129.230469 211.035156 130.230469 C 212.257812 131.972656 212.257812 131.972656 212.628906 134.492188 C 212.628906 135.566406 212.628906 136.605469 212.628906 137.640625 L 212.628906 139.382812 C 212.628906 141.234375 212.628906 143.160156 212.628906 145.011719 C 212.628906 146.347656 212.628906 147.605469 212.628906 148.941406 C 212.628906 151.679688 212.628906 154.460938 212.589844 157.199219 C 212.589844 160.683594 212.589844 164.203125 212.589844 167.757812 C 212.589844 170.425781 212.589844 173.128906 212.589844 175.835938 C 212.589844 177.128906 212.589844 178.425781 212.589844 179.761719 C 212.589844 181.574219 212.589844 183.390625 212.589844 185.167969 L 212.589844 186.800781 C 212.515625 189.132812 212.292969 190.835938 211.292969 192.984375 C 210.21875 194.355469 210.21875 194.355469 208.996094 194.910156 C 205.402344 195.246094 201.847656 195.207031 198.253906 195.207031 C 196.996094 195.246094 196.996094 195.246094 195.699219 195.246094 L 193.253906 195.246094 L 190.992188 195.320312 C 188.660156 195.023438 187.402344 194.429688 185.546875 192.984375 C 184.175781 190.910156 184.175781 190.910156 183.992188 188.464844 C 183.957031 187.464844 183.957031 186.429688 183.957031 185.429688 L 183.957031 183.6875 C 183.917969 181.835938 183.917969 179.984375 183.917969 178.09375 L 183.917969 174.203125 C 183.84375 171.5 183.84375 168.796875 183.84375 166.054688 C 183.84375 162.609375 183.808594 159.089844 183.808594 155.644531 C 183.769531 152.941406 183.769531 150.273438 183.769531 147.570312 C 183.769531 146.308594 183.769531 145.011719 183.769531 143.714844 C 183.734375 141.9375 183.734375 140.125 183.734375 138.34375 L 183.734375 136.753906 C 183.734375 135.269531 183.734375 135.269531 184.175781 132.640625 C 186.03125 130.195312 186.917969 129.304688 189.917969 128.789062 M 148.097656 149.347656 C 149.023438 149.347656 149.949219 149.347656 150.875 149.347656 L 152.355469 149.347656 C 153.429688 149.347656 154.429688 149.347656 155.503906 149.382812 C 157.0625 149.382812 158.652344 149.382812 160.246094 149.382812 C 161.246094 149.382812 162.246094 149.382812 163.246094 149.382812 L 164.730469 149.382812 C 166.0625 149.421875 166.0625 149.421875 168.398438 149.792969 C 169.914062 150.941406 169.914062 150.941406 171.136719 152.53125 C 171.472656 154.3125 171.472656 154.3125 171.472656 156.386719 L 171.507812 158.757812 L 171.472656 161.277344 L 171.472656 163.832031 C 171.472656 165.648438 171.472656 167.460938 171.472656 169.277344 C 171.472656 171.609375 171.398438 173.945312 171.472656 176.242188 C 171.472656 178.464844 171.472656 180.6875 171.398438 182.910156 L 171.472656 185.429688 L 171.398438 187.761719 L 171.398438 189.800781 C 171.136719 191.613281 171.136719 191.613281 170.175781 193.207031 C 169.0625 194.355469 169.0625 194.355469 167.804688 194.875 C 164.285156 195.320312 160.691406 195.171875 157.097656 195.171875 L 154.578125 195.207031 L 149.875 195.207031 C 147.6875 195.023438 146.28125 194.765625 144.390625 193.652344 C 143.167969 191.246094 142.835938 189.246094 142.835938 186.539062 L 142.800781 184.316406 L 142.800781 179.5 C 142.800781 177.761719 142.726562 176.054688 142.726562 174.351562 C 142.726562 171.722656 142.726562 169.128906 142.6875 166.5 C 142.6875 164.867188 142.6875 163.164062 142.6875 161.535156 L 142.652344 159.128906 C 142.6875 156.089844 142.726562 153.828125 144.058594 150.976562 C 145.761719 149.792969 145.761719 149.792969 148.097656 149.347656 " fill-opacity="1" fill-rule="nonzero"/><path fill="#c8e6c9" d="M 164.765625 36.582031 C 167.027344 37.324219 167.027344 37.324219 169.0625 39.101562 C 170.433594 41.4375 170.433594 41.4375 170.472656 43.917969 C 169.765625 46.214844 169.765625 46.214844 168.582031 47.660156 C 166.839844 49.105469 165.433594 49.734375 163.359375 50.476562 C 154.839844 53.847656 146.652344 59.550781 140.242188 66.109375 L 138.871094 67.515625 L 137.5 67.515625 L 137.058594 68.589844 C 136.09375 70.332031 134.910156 71.851562 133.613281 73.40625 C 124.054688 85.074219 119.238281 97.632812 115.941406 112.15625 C 114.976562 116.007812 114.976562 116.007812 113.832031 117.636719 C 111.535156 118.453125 109.753906 118.339844 107.382812 117.933594 C 106.015625 117.5625 106.015625 117.5625 104.644531 116.339844 C 103.644531 114.265625 103.160156 112.304688 103.347656 109.96875 C 106.753906 93.964844 112.644531 78.851562 123.089844 66.109375 L 124.128906 64.921875 C 128.019531 60.144531 131.90625 55.550781 136.835938 51.734375 L 138.613281 50.289062 C 142.613281 47.214844 146.726562 44.4375 151.058594 41.84375 L 152.542969 40.992188 C 156.394531 38.730469 160.210938 36.65625 164.765625 36.582031 " fill-opacity="1" fill-rule="nonzero"/><path fill="#ffffff" d="M 159.394531 301.265625 L 166.433594 301.265625 C 168.765625 301.265625 171.027344 301.265625 173.285156 301.265625 C 175.175781 301.230469 177.027344 301.230469 178.953125 301.230469 C 183.4375 301.230469 187.84375 301.230469 192.328125 301.230469 C 196.921875 301.230469 201.550781 301.230469 206.144531 301.230469 C 210.109375 301.230469 214.035156 301.230469 218 301.230469 C 220.371094 301.230469 222.742188 301.230469 225.074219 301.15625 C 227.742188 301.15625 230.335938 301.15625 233.003906 301.15625 C 234.152344 301.15625 234.152344 301.15625 235.375 301.15625 L 239.449219 301.15625 C 241.261719 301.339844 242.300781 301.75 243.820312 302.710938 L 245.191406 304.75 C 244.929688 306.636719 244.929688 306.636719 244.523438 308.230469 L 243.226562 308.34375 C 232.78125 309.640625 222.371094 311.007812 211.960938 312.492188 L 209.738281 312.75 C 200.625 314.011719 191.476562 315.308594 182.363281 316.601562 L 179.660156 317.011719 C 175.359375 317.605469 171.0625 318.234375 166.730469 318.863281 L 159.875 319.828125 L 157.875 320.121094 L 156.136719 320.34375 C 154.652344 320.53125 154.652344 320.53125 152.617188 320.53125 C 151.984375 315.566406 151.394531 310.492188 151.910156 305.488281 C 153.207031 303.304688 153.207031 303.304688 154.652344 302.042969 C 156.394531 301.15625 157.503906 301.265625 159.394531 301.265625 M 243.820312 323.269531 C 244.003906 325.492188 244.191406 327.714844 244.300781 329.902344 L 244.449219 331.792969 C 244.632812 334.679688 244.632812 336.71875 243.632812 339.460938 L 242.449219 341.164062 C 240.375 341.792969 239.039062 341.90625 236.855469 341.90625 L 234.632812 341.90625 L 232.222656 341.867188 L 229.632812 341.867188 C 227.335938 341.867188 225 341.867188 222.667969 341.867188 L 218.332031 341.792969 C 213.777344 341.792969 209.257812 341.757812 204.699219 341.71875 C 199.476562 341.71875 194.214844 341.683594 188.992188 341.683594 C 184.917969 341.644531 180.878906 341.644531 176.84375 341.570312 C 174.433594 341.570312 171.988281 341.570312 169.582031 341.570312 C 166.878906 341.570312 164.171875 341.535156 161.46875 341.496094 L 159.0625 341.535156 L 156.839844 341.496094 L 154.914062 341.496094 L 153.28125 341.164062 C 152.058594 339.867188 152.058594 339.867188 151.246094 338.386719 C 151.46875 336.496094 151.46875 336.496094 151.910156 334.941406 C 162.394531 333.347656 172.878906 331.867188 183.363281 330.457031 C 190.917969 329.457031 198.402344 328.421875 205.886719 327.347656 L 208.554688 327.011719 C 212.925781 326.382812 217.332031 325.753906 221.703125 325.160156 L 226.59375 324.457031 L 228.851562 324.125 C 232.113281 323.640625 235.410156 323.195312 238.707031 322.828125 L 240.375 322.679688 C 241.78125 322.605469 241.78125 322.605469 243.820312 323.269531 " fill-opacity="1" fill-rule="nonzero"/><path fill="#ffffff" d="M 178.695312 355.539062 C 182.4375 355.5 186.214844 355.5 189.992188 355.5 C 191.253906 355.5 192.511719 355.5 193.773438 355.5 C 202.515625 355.464844 211.144531 355.683594 219.851562 356.203125 C 218.257812 360.425781 215.738281 362.984375 212.257812 365.835938 C 208.183594 368.207031 204.21875 369.316406 199.515625 369.429688 C 195.476562 369.390625 191.957031 368.875 188.289062 367.207031 C 184.175781 364.6875 181.175781 361.722656 178.695312 357.574219 Z M 178.695312 355.539062 " fill-opacity="1" fill-rule="nonzero"/></svg>