<svg xmlns="http://www.w3.org/2000/svg" xmlns:xlink="http://www.w3.org/1999/xlink" width="400" zoomAndPan="magnify" viewBox="0 0 300 48" height="64" preserveAspectRatio="xMidYMid meet" version="1.0"><defs><g/><clipPath id="e5b61e1e3a"><path d="M 3.0625 4 L 296.9375 4 L 296.9375 38 L 3.0625 38 Z M 3.0625 4 " clip-rule="nonzero"/></clipPath><clipPath id="4f8b6f621b"><path d="M 0.0625 7 L 15 7 L 15 26 L 0.0625 26 Z M 0.0625 7 " clip-rule="nonzero"/></clipPath><clipPath id="871d41a97a"><path d="M 280 12 L 293.9375 12 L 293.9375 26 L 280 26 Z M 280 12 " clip-rule="nonzero"/></clipPath><clipPath id="5fb6b1a321"><rect x="0" width="294" y="0" height="34"/></clipPath></defs><g clip-path="url(#e5b61e1e3a)"><g transform="matrix(1, 0, 0, 1, 3, 4)"><g clip-path="url(#5fb6b1a321)"><g clip-path="url(#4f8b6f621b)"><g fill="#212121" fill-opacity="1"><g transform="translate(0.0612233, 25.503001)"><g><path d="M 14.765625 -17.6875 L 14.765625 0 L 11.21875 0 L 11.21875 -1.484375 C 10.300781 -0.367188 8.96875 0.1875 7.21875 0.1875 C 6.007812 0.1875 4.914062 -0.078125 3.9375 -0.609375 C 2.96875 -1.148438 2.203125 -1.921875 1.640625 -2.921875 C 1.085938 -3.929688 0.8125 -5.09375 0.8125 -6.40625 C 0.8125 -7.726562 1.085938 -8.890625 1.640625 -9.890625 C 2.203125 -10.890625 2.96875 -11.660156 3.9375 -12.203125 C 4.914062 -12.742188 6.007812 -13.015625 7.21875 -13.015625 C 8.851562 -13.015625 10.132812 -12.5 11.0625 -11.46875 L 11.0625 -17.6875 Z M 7.859375 -2.859375 C 8.796875 -2.859375 9.570312 -3.179688 10.1875 -3.828125 C 10.8125 -4.472656 11.125 -5.332031 11.125 -6.40625 C 11.125 -7.488281 10.8125 -8.347656 10.1875 -8.984375 C 9.570312 -9.628906 8.796875 -9.953125 7.859375 -9.953125 C 6.910156 -9.953125 6.125 -9.628906 5.5 -8.984375 C 4.882812 -8.347656 4.578125 -7.488281 4.578125 -6.40625 C 4.578125 -5.332031 4.882812 -4.472656 5.5 -3.828125 C 6.125 -3.179688 6.910156 -2.859375 7.859375 -2.859375 Z M 7.859375 -2.859375 "/></g></g></g></g><g fill="#212121" fill-opacity="1"><g transform="translate(16.550074, 25.503001)"><g><path d="M 6.890625 -13.015625 C 8.867188 -13.015625 10.390625 -12.539062 11.453125 -11.59375 C 12.523438 -10.644531 13.0625 -9.21875 13.0625 -7.3125 L 13.0625 0 L 9.578125 0 L 9.578125 -1.59375 C 8.878906 -0.40625 7.578125 0.1875 5.671875 0.1875 C 4.679688 0.1875 3.828125 0.0195312 3.109375 -0.3125 C 2.390625 -0.644531 1.835938 -1.101562 1.453125 -1.6875 C 1.066406 -2.28125 0.875 -2.945312 0.875 -3.6875 C 0.875 -4.882812 1.320312 -5.820312 2.21875 -6.5 C 3.125 -7.1875 4.515625 -7.53125 6.390625 -7.53125 L 9.34375 -7.53125 C 9.34375 -8.34375 9.09375 -8.96875 8.59375 -9.40625 C 8.101562 -9.84375 7.367188 -10.0625 6.390625 -10.0625 C 5.703125 -10.0625 5.03125 -9.953125 4.375 -9.734375 C 3.71875 -9.515625 3.15625 -9.222656 2.6875 -8.859375 L 1.359375 -11.46875 C 2.054688 -11.957031 2.894531 -12.335938 3.875 -12.609375 C 4.851562 -12.878906 5.859375 -13.015625 6.890625 -13.015625 Z M 6.59375 -2.3125 C 7.226562 -2.3125 7.789062 -2.457031 8.28125 -2.75 C 8.78125 -3.039062 9.132812 -3.472656 9.34375 -4.046875 L 9.34375 -5.359375 L 6.796875 -5.359375 C 5.265625 -5.359375 4.5 -4.859375 4.5 -3.859375 C 4.5 -3.378906 4.6875 -3 5.0625 -2.71875 C 5.4375 -2.445312 5.945312 -2.3125 6.59375 -2.3125 Z M 6.59375 -2.3125 "/></g></g></g><g fill="#212121" fill-opacity="1"><g transform="translate(31.251836, 25.503001)"><g><path d="M 9.984375 -0.625 C 9.617188 -0.351562 9.171875 -0.148438 8.640625 -0.015625 C 8.109375 0.117188 7.546875 0.1875 6.953125 0.1875 C 5.429688 0.1875 4.253906 -0.195312 3.421875 -0.96875 C 2.585938 -1.75 2.171875 -2.894531 2.171875 -4.40625 L 2.171875 -9.671875 L 0.1875 -9.671875 L 0.1875 -12.53125 L 2.171875 -12.53125 L 2.171875 -15.65625 L 5.890625 -15.65625 L 5.890625 -12.53125 L 9.078125 -12.53125 L 9.078125 -9.671875 L 5.890625 -9.671875 L 5.890625 -4.453125 C 5.890625 -3.910156 6.023438 -3.492188 6.296875 -3.203125 C 6.578125 -2.910156 6.972656 -2.765625 7.484375 -2.765625 C 8.066406 -2.765625 8.566406 -2.921875 8.984375 -3.234375 Z M 9.984375 -0.625 "/></g></g></g><g fill="#212121" fill-opacity="1"><g transform="translate(41.616948, 25.503001)"><g><path d="M 6.890625 -13.015625 C 8.867188 -13.015625 10.390625 -12.539062 11.453125 -11.59375 C 12.523438 -10.644531 13.0625 -9.21875 13.0625 -7.3125 L 13.0625 0 L 9.578125 0 L 9.578125 -1.59375 C 8.878906 -0.40625 7.578125 0.1875 5.671875 0.1875 C 4.679688 0.1875 3.828125 0.0195312 3.109375 -0.3125 C 2.390625 -0.644531 1.835938 -1.101562 1.453125 -1.6875 C 1.066406 -2.28125 0.875 -2.945312 0.875 -3.6875 C 0.875 -4.882812 1.320312 -5.820312 2.21875 -6.5 C 3.125 -7.1875 4.515625 -7.53125 6.390625 -7.53125 L 9.34375 -7.53125 C 9.34375 -8.34375 9.09375 -8.96875 8.59375 -9.40625 C 8.101562 -9.84375 7.367188 -10.0625 6.390625 -10.0625 C 5.703125 -10.0625 5.03125 -9.953125 4.375 -9.734375 C 3.71875 -9.515625 3.15625 -9.222656 2.6875 -8.859375 L 1.359375 -11.46875 C 2.054688 -11.957031 2.894531 -12.335938 3.875 -12.609375 C 4.851562 -12.878906 5.859375 -13.015625 6.890625 -13.015625 Z M 6.59375 -2.3125 C 7.226562 -2.3125 7.789062 -2.457031 8.28125 -2.75 C 8.78125 -3.039062 9.132812 -3.472656 9.34375 -4.046875 L 9.34375 -5.359375 L 6.796875 -5.359375 C 5.265625 -5.359375 4.5 -4.859375 4.5 -3.859375 C 4.5 -3.378906 4.6875 -3 5.0625 -2.71875 C 5.4375 -2.445312 5.945312 -2.3125 6.59375 -2.3125 Z M 6.59375 -2.3125 "/></g></g></g><g fill="#212121" fill-opacity="1"><g transform="translate(56.318709, 25.503001)"><g><path d="M 18.140625 -13.015625 C 19.742188 -13.015625 21.015625 -12.539062 21.953125 -11.59375 C 22.898438 -10.644531 23.375 -9.226562 23.375 -7.34375 L 23.375 0 L 19.65625 0 L 19.65625 -6.765625 C 19.65625 -7.785156 19.441406 -8.546875 19.015625 -9.046875 C 18.597656 -9.546875 18.003906 -9.796875 17.234375 -9.796875 C 16.359375 -9.796875 15.664062 -9.507812 15.15625 -8.9375 C 14.644531 -8.375 14.390625 -7.539062 14.390625 -6.4375 L 14.390625 0 L 10.671875 0 L 10.671875 -6.765625 C 10.671875 -8.785156 9.863281 -9.796875 8.25 -9.796875 C 7.382812 -9.796875 6.695312 -9.507812 6.1875 -8.9375 C 5.6875 -8.375 5.4375 -7.539062 5.4375 -6.4375 L 5.4375 0 L 1.71875 0 L 1.71875 -12.8125 L 5.265625 -12.8125 L 5.265625 -11.34375 C 5.742188 -11.882812 6.328125 -12.296875 7.015625 -12.578125 C 7.703125 -12.867188 8.460938 -13.015625 9.296875 -13.015625 C 10.203125 -13.015625 11.019531 -12.832031 11.75 -12.46875 C 12.476562 -12.113281 13.066406 -11.59375 13.515625 -10.90625 C 14.035156 -11.570312 14.695312 -12.085938 15.5 -12.453125 C 16.300781 -12.828125 17.179688 -13.015625 18.140625 -13.015625 Z M 18.140625 -13.015625 "/></g></g></g><g fill="#212121" fill-opacity="1"><g transform="translate(81.314102, 25.503001)"><g><path d="M 6.890625 -13.015625 C 8.867188 -13.015625 10.390625 -12.539062 11.453125 -11.59375 C 12.523438 -10.644531 13.0625 -9.21875 13.0625 -7.3125 L 13.0625 0 L 9.578125 0 L 9.578125 -1.59375 C 8.878906 -0.40625 7.578125 0.1875 5.671875 0.1875 C 4.679688 0.1875 3.828125 0.0195312 3.109375 -0.3125 C 2.390625 -0.644531 1.835938 -1.101562 1.453125 -1.6875 C 1.066406 -2.28125 0.875 -2.945312 0.875 -3.6875 C 0.875 -4.882812 1.320312 -5.820312 2.21875 -6.5 C 3.125 -7.1875 4.515625 -7.53125 6.390625 -7.53125 L 9.34375 -7.53125 C 9.34375 -8.34375 9.09375 -8.96875 8.59375 -9.40625 C 8.101562 -9.84375 7.367188 -10.0625 6.390625 -10.0625 C 5.703125 -10.0625 5.03125 -9.953125 4.375 -9.734375 C 3.71875 -9.515625 3.15625 -9.222656 2.6875 -8.859375 L 1.359375 -11.46875 C 2.054688 -11.957031 2.894531 -12.335938 3.875 -12.609375 C 4.851562 -12.878906 5.859375 -13.015625 6.890625 -13.015625 Z M 6.59375 -2.3125 C 7.226562 -2.3125 7.789062 -2.457031 8.28125 -2.75 C 8.78125 -3.039062 9.132812 -3.472656 9.34375 -4.046875 L 9.34375 -5.359375 L 6.796875 -5.359375 C 5.265625 -5.359375 4.5 -4.859375 4.5 -3.859375 C 4.5 -3.378906 4.6875 -3 5.0625 -2.71875 C 5.4375 -2.445312 5.945312 -2.3125 6.59375 -2.3125 Z M 6.59375 -2.3125 "/></g></g></g><g fill="#212121" fill-opacity="1"><g transform="translate(96.015864, 25.503001)"><g><path d="M 7.21875 -5.03125 L 5.4375 -3.265625 L 5.4375 0 L 1.71875 0 L 1.71875 -17.6875 L 5.4375 -17.6875 L 5.4375 -7.671875 L 10.859375 -12.8125 L 15.296875 -12.8125 L 9.953125 -7.390625 L 15.78125 0 L 11.265625 0 Z M 7.21875 -5.03125 "/></g></g></g><g fill="#212121" fill-opacity="1"><g transform="translate(111.742224, 25.503001)"><g><path d="M 1.71875 -12.8125 L 5.4375 -12.8125 L 5.4375 0 L 1.71875 0 Z M 3.578125 -14.609375 C 2.890625 -14.609375 2.332031 -14.804688 1.90625 -15.203125 C 1.476562 -15.597656 1.265625 -16.085938 1.265625 -16.671875 C 1.265625 -17.265625 1.476562 -17.757812 1.90625 -18.15625 C 2.332031 -18.550781 2.890625 -18.75 3.578125 -18.75 C 4.253906 -18.75 4.804688 -18.554688 5.234375 -18.171875 C 5.660156 -17.796875 5.875 -17.320312 5.875 -16.75 C 5.875 -16.132812 5.660156 -15.625 5.234375 -15.21875 C 4.804688 -14.8125 4.253906 -14.609375 3.578125 -14.609375 Z M 3.578125 -14.609375 "/></g></g></g><g fill="#212121" fill-opacity="1"><g transform="translate(118.914394, 25.503001)"><g><path d="M 9.5 -13.015625 C 11.09375 -13.015625 12.378906 -12.535156 13.359375 -11.578125 C 14.335938 -10.628906 14.828125 -9.21875 14.828125 -7.34375 L 14.828125 0 L 11.109375 0 L 11.109375 -6.765625 C 11.109375 -7.785156 10.882812 -8.546875 10.4375 -9.046875 C 9.988281 -9.546875 9.34375 -9.796875 8.5 -9.796875 C 7.5625 -9.796875 6.816406 -9.503906 6.265625 -8.921875 C 5.710938 -8.335938 5.4375 -7.476562 5.4375 -6.34375 L 5.4375 0 L 1.71875 0 L 1.71875 -12.8125 L 5.265625 -12.8125 L 5.265625 -11.3125 C 5.753906 -11.851562 6.363281 -12.269531 7.09375 -12.5625 C 7.832031 -12.863281 8.632812 -13.015625 9.5 -13.015625 Z M 9.5 -13.015625 "/></g></g></g><g fill="#212121" fill-opacity="1"><g transform="translate(135.37943, 25.503001)"><g><path d="M 14.9375 -12.8125 L 14.9375 -2.140625 C 14.9375 0.203125 14.320312 1.945312 13.09375 3.09375 C 11.875 4.238281 10.09375 4.8125 7.75 4.8125 C 6.507812 4.8125 5.332031 4.660156 4.21875 4.359375 C 3.101562 4.054688 2.179688 3.617188 1.453125 3.046875 L 2.9375 0.375 C 3.46875 0.820312 4.144531 1.175781 4.96875 1.4375 C 5.800781 1.695312 6.628906 1.828125 7.453125 1.828125 C 8.742188 1.828125 9.691406 1.535156 10.296875 0.953125 C 10.910156 0.378906 11.21875 -0.492188 11.21875 -1.671875 L 11.21875 -2.21875 C 10.25 -1.15625 8.898438 -0.625 7.171875 -0.625 C 5.992188 -0.625 4.914062 -0.878906 3.9375 -1.390625 C 2.96875 -1.910156 2.195312 -2.640625 1.625 -3.578125 C 1.050781 -4.515625 0.765625 -5.59375 0.765625 -6.8125 C 0.765625 -8.039062 1.050781 -9.125 1.625 -10.0625 C 2.195312 -11 2.96875 -11.722656 3.9375 -12.234375 C 4.914062 -12.753906 5.992188 -13.015625 7.171875 -13.015625 C 9.023438 -13.015625 10.4375 -12.398438 11.40625 -11.171875 L 11.40625 -12.8125 Z M 7.90625 -3.671875 C 8.894531 -3.671875 9.703125 -3.957031 10.328125 -4.53125 C 10.953125 -5.113281 11.265625 -5.875 11.265625 -6.8125 C 11.265625 -7.75 10.953125 -8.503906 10.328125 -9.078125 C 9.703125 -9.660156 8.894531 -9.953125 7.90625 -9.953125 C 6.925781 -9.953125 6.117188 -9.660156 5.484375 -9.078125 C 4.847656 -8.503906 4.53125 -7.75 4.53125 -6.8125 C 4.53125 -5.875 4.847656 -5.113281 5.484375 -4.53125 C 6.117188 -3.957031 6.925781 -3.671875 7.90625 -3.671875 Z M 7.90625 -3.671875 "/></g></g></g><g fill="#212121" fill-opacity="1"><g transform="translate(152.058908, 25.503001)"><g><path d="M 6.03125 0.1875 C 4.96875 0.1875 3.925781 0.0546875 2.90625 -0.203125 C 1.882812 -0.460938 1.070312 -0.789062 0.46875 -1.1875 L 1.71875 -3.859375 C 2.289062 -3.492188 2.976562 -3.195312 3.78125 -2.96875 C 4.59375 -2.738281 5.390625 -2.625 6.171875 -2.625 C 7.742188 -2.625 8.53125 -3.007812 8.53125 -3.78125 C 8.53125 -4.15625 8.316406 -4.421875 7.890625 -4.578125 C 7.460938 -4.734375 6.800781 -4.867188 5.90625 -4.984375 C 4.863281 -5.140625 4 -5.320312 3.3125 -5.53125 C 2.625 -5.738281 2.03125 -6.101562 1.53125 -6.625 C 1.03125 -7.144531 0.78125 -7.890625 0.78125 -8.859375 C 0.78125 -9.671875 1.015625 -10.390625 1.484375 -11.015625 C 1.953125 -11.648438 2.632812 -12.140625 3.53125 -12.484375 C 4.4375 -12.835938 5.5 -13.015625 6.71875 -13.015625 C 7.625 -13.015625 8.523438 -12.914062 9.421875 -12.71875 C 10.316406 -12.519531 11.0625 -12.242188 11.65625 -11.890625 L 10.40625 -9.25 C 9.28125 -9.882812 8.050781 -10.203125 6.71875 -10.203125 C 5.925781 -10.203125 5.332031 -10.085938 4.9375 -9.859375 C 4.539062 -9.640625 4.34375 -9.351562 4.34375 -9 C 4.34375 -8.601562 4.554688 -8.328125 4.984375 -8.171875 C 5.410156 -8.015625 6.09375 -7.863281 7.03125 -7.71875 C 8.082031 -7.539062 8.941406 -7.351562 9.609375 -7.15625 C 10.273438 -6.957031 10.851562 -6.597656 11.34375 -6.078125 C 11.832031 -5.554688 12.078125 -4.828125 12.078125 -3.890625 C 12.078125 -3.085938 11.835938 -2.375 11.359375 -1.75 C 10.890625 -1.132812 10.195312 -0.65625 9.28125 -0.3125 C 8.363281 0.0195312 7.28125 0.1875 6.03125 0.1875 Z M 6.03125 0.1875 "/></g></g></g><g fill="#212121" fill-opacity="1"><g transform="translate(164.711491, 25.503001)"><g><path d="M 14.265625 -6.359375 C 14.265625 -6.316406 14.242188 -5.984375 14.203125 -5.359375 L 4.5 -5.359375 C 4.675781 -4.566406 5.085938 -3.9375 5.734375 -3.46875 C 6.390625 -3.007812 7.203125 -2.78125 8.171875 -2.78125 C 8.835938 -2.78125 9.425781 -2.878906 9.9375 -3.078125 C 10.457031 -3.285156 10.941406 -3.601562 11.390625 -4.03125 L 13.375 -1.875 C 12.164062 -0.5 10.398438 0.1875 8.078125 0.1875 C 6.628906 0.1875 5.347656 -0.09375 4.234375 -0.65625 C 3.128906 -1.21875 2.273438 -2 1.671875 -3 C 1.066406 -4 0.765625 -5.132812 0.765625 -6.40625 C 0.765625 -7.664062 1.0625 -8.796875 1.65625 -9.796875 C 2.25 -10.804688 3.066406 -11.59375 4.109375 -12.15625 C 5.148438 -12.726562 6.3125 -13.015625 7.59375 -13.015625 C 8.851562 -13.015625 9.988281 -12.742188 11 -12.203125 C 12.019531 -11.660156 12.816406 -10.882812 13.390625 -9.875 C 13.972656 -8.863281 14.265625 -7.691406 14.265625 -6.359375 Z M 7.625 -10.203125 C 6.78125 -10.203125 6.070312 -9.960938 5.5 -9.484375 C 4.925781 -9.003906 4.578125 -8.351562 4.453125 -7.53125 L 10.765625 -7.53125 C 10.640625 -8.34375 10.289062 -8.988281 9.71875 -9.46875 C 9.144531 -9.957031 8.445312 -10.203125 7.625 -10.203125 Z M 7.625 -10.203125 "/></g></g></g><g fill="#212121" fill-opacity="1"><g transform="translate(179.74686, 25.503001)"><g><path d="M 9.5 -13.015625 C 11.09375 -13.015625 12.378906 -12.535156 13.359375 -11.578125 C 14.335938 -10.628906 14.828125 -9.21875 14.828125 -7.34375 L 14.828125 0 L 11.109375 0 L 11.109375 -6.765625 C 11.109375 -7.785156 10.882812 -8.546875 10.4375 -9.046875 C 9.988281 -9.546875 9.34375 -9.796875 8.5 -9.796875 C 7.5625 -9.796875 6.816406 -9.503906 6.265625 -8.921875 C 5.710938 -8.335938 5.4375 -7.476562 5.4375 -6.34375 L 5.4375 0 L 1.71875 0 L 1.71875 -12.8125 L 5.265625 -12.8125 L 5.265625 -11.3125 C 5.753906 -11.851562 6.363281 -12.269531 7.09375 -12.5625 C 7.832031 -12.863281 8.632812 -13.015625 9.5 -13.015625 Z M 9.5 -13.015625 "/></g></g></g><g fill="#212121" fill-opacity="1"><g transform="translate(196.211896, 25.503001)"><g><path d="M 6.03125 0.1875 C 4.96875 0.1875 3.925781 0.0546875 2.90625 -0.203125 C 1.882812 -0.460938 1.070312 -0.789062 0.46875 -1.1875 L 1.71875 -3.859375 C 2.289062 -3.492188 2.976562 -3.195312 3.78125 -2.96875 C 4.59375 -2.738281 5.390625 -2.625 6.171875 -2.625 C 7.742188 -2.625 8.53125 -3.007812 8.53125 -3.78125 C 8.53125 -4.15625 8.316406 -4.421875 7.890625 -4.578125 C 7.460938 -4.734375 6.800781 -4.867188 5.90625 -4.984375 C 4.863281 -5.140625 4 -5.320312 3.3125 -5.53125 C 2.625 -5.738281 2.03125 -6.101562 1.53125 -6.625 C 1.03125 -7.144531 0.78125 -7.890625 0.78125 -8.859375 C 0.78125 -9.671875 1.015625 -10.390625 1.484375 -11.015625 C 1.953125 -11.648438 2.632812 -12.140625 3.53125 -12.484375 C 4.4375 -12.835938 5.5 -13.015625 6.71875 -13.015625 C 7.625 -13.015625 8.523438 -12.914062 9.421875 -12.71875 C 10.316406 -12.519531 11.0625 -12.242188 11.65625 -11.890625 L 10.40625 -9.25 C 9.28125 -9.882812 8.050781 -10.203125 6.71875 -10.203125 C 5.925781 -10.203125 5.332031 -10.085938 4.9375 -9.859375 C 4.539062 -9.640625 4.34375 -9.351562 4.34375 -9 C 4.34375 -8.601562 4.554688 -8.328125 4.984375 -8.171875 C 5.410156 -8.015625 6.09375 -7.863281 7.03125 -7.71875 C 8.082031 -7.539062 8.941406 -7.351562 9.609375 -7.15625 C 10.273438 -6.957031 10.851562 -6.597656 11.34375 -6.078125 C 11.832031 -5.554688 12.078125 -4.828125 12.078125 -3.890625 C 12.078125 -3.085938 11.835938 -2.375 11.359375 -1.75 C 10.890625 -1.132812 10.195312 -0.65625 9.28125 -0.3125 C 8.363281 0.0195312 7.28125 0.1875 6.03125 0.1875 Z M 6.03125 0.1875 "/></g></g></g><g fill="#212121" fill-opacity="1"><g transform="translate(208.864479, 25.503001)"><g><path d="M 14.265625 -6.359375 C 14.265625 -6.316406 14.242188 -5.984375 14.203125 -5.359375 L 4.5 -5.359375 C 4.675781 -4.566406 5.085938 -3.9375 5.734375 -3.46875 C 6.390625 -3.007812 7.203125 -2.78125 8.171875 -2.78125 C 8.835938 -2.78125 9.425781 -2.878906 9.9375 -3.078125 C 10.457031 -3.285156 10.941406 -3.601562 11.390625 -4.03125 L 13.375 -1.875 C 12.164062 -0.5 10.398438 0.1875 8.078125 0.1875 C 6.628906 0.1875 5.347656 -0.09375 4.234375 -0.65625 C 3.128906 -1.21875 2.273438 -2 1.671875 -3 C 1.066406 -4 0.765625 -5.132812 0.765625 -6.40625 C 0.765625 -7.664062 1.0625 -8.796875 1.65625 -9.796875 C 2.25 -10.804688 3.066406 -11.59375 4.109375 -12.15625 C 5.148438 -12.726562 6.3125 -13.015625 7.59375 -13.015625 C 8.851562 -13.015625 9.988281 -12.742188 11 -12.203125 C 12.019531 -11.660156 12.816406 -10.882812 13.390625 -9.875 C 13.972656 -8.863281 14.265625 -7.691406 14.265625 -6.359375 Z M 7.625 -10.203125 C 6.78125 -10.203125 6.070312 -9.960938 5.5 -9.484375 C 4.925781 -9.003906 4.578125 -8.351562 4.453125 -7.53125 L 10.765625 -7.53125 C 10.640625 -8.34375 10.289062 -8.988281 9.71875 -9.46875 C 9.144531 -9.957031 8.445312 -10.203125 7.625 -10.203125 Z M 7.625 -10.203125 "/></g></g></g><g fill="#4caf50" fill-opacity="1"><g transform="translate(223.205783, 25.503346)"><g><path d="M 2.53125 0.140625 C 2.113281 0.140625 1.757812 0 1.46875 -0.28125 C 1.1875 -0.570312 1.046875 -0.921875 1.046875 -1.328125 C 1.046875 -1.742188 1.1875 -2.09375 1.46875 -2.375 C 1.757812 -2.664062 2.113281 -2.8125 2.53125 -2.8125 C 2.925781 -2.8125 3.257812 -2.664062 3.53125 -2.375 C 3.8125 -2.09375 3.953125 -1.742188 3.953125 -1.328125 C 3.953125 -0.921875 3.8125 -0.570312 3.53125 -0.28125 C 3.257812 0 2.925781 0.140625 2.53125 0.140625 Z M 2.53125 0.140625 "/></g></g></g><g fill="#4caf50" fill-opacity="1"><g transform="translate(226.728441, 25.503346)"><g><path d="M 6.453125 0.21875 C 5.453125 0.21875 4.554688 0.046875 3.765625 -0.296875 C 2.972656 -0.640625 2.34375 -1.113281 1.875 -1.71875 C 1.414062 -2.332031 1.164062 -3.035156 1.125 -3.828125 L 3.359375 -3.828125 C 3.421875 -3.179688 3.722656 -2.648438 4.265625 -2.234375 C 4.816406 -1.828125 5.535156 -1.625 6.421875 -1.625 C 7.253906 -1.625 7.90625 -1.804688 8.375 -2.171875 C 8.851562 -2.535156 9.09375 -2.992188 9.09375 -3.546875 C 9.09375 -4.117188 8.835938 -4.539062 8.328125 -4.8125 C 7.828125 -5.09375 7.046875 -5.367188 5.984375 -5.640625 C 5.015625 -5.898438 4.222656 -6.160156 3.609375 -6.421875 C 2.992188 -6.679688 2.46875 -7.066406 2.03125 -7.578125 C 1.59375 -8.097656 1.375 -8.78125 1.375 -9.625 C 1.375 -10.289062 1.570312 -10.898438 1.96875 -11.453125 C 2.375 -12.003906 2.941406 -12.441406 3.671875 -12.765625 C 4.398438 -13.097656 5.234375 -13.265625 6.171875 -13.265625 C 7.609375 -13.265625 8.769531 -12.898438 9.65625 -12.171875 C 10.550781 -11.441406 11.03125 -10.441406 11.09375 -9.171875 L 8.9375 -9.171875 C 8.882812 -9.847656 8.609375 -10.394531 8.109375 -10.8125 C 7.609375 -11.226562 6.9375 -11.4375 6.09375 -11.4375 C 5.3125 -11.4375 4.691406 -11.269531 4.234375 -10.9375 C 3.773438 -10.601562 3.546875 -10.164062 3.546875 -9.625 C 3.546875 -9.195312 3.679688 -8.84375 3.953125 -8.5625 C 4.234375 -8.28125 4.582031 -8.054688 5 -7.890625 C 5.425781 -7.722656 6.015625 -7.535156 6.765625 -7.328125 C 7.703125 -7.078125 8.460938 -6.828125 9.046875 -6.578125 C 9.640625 -6.335938 10.144531 -5.96875 10.5625 -5.46875 C 10.976562 -4.976562 11.195312 -4.335938 11.21875 -3.546875 C 11.21875 -2.828125 11.019531 -2.179688 10.625 -1.609375 C 10.226562 -1.046875 9.664062 -0.597656 8.9375 -0.265625 C 8.21875 0.0546875 7.390625 0.21875 6.453125 0.21875 Z M 6.453125 0.21875 "/></g></g></g><g fill="#4caf50" fill-opacity="1"><g transform="translate(237.679614, 25.503346)"><g><path d="M 4 -10.640625 C 4.425781 -11.390625 5.0625 -12.015625 5.90625 -12.515625 C 6.757812 -13.015625 7.75 -13.265625 8.875 -13.265625 C 10.039062 -13.265625 11.09375 -12.984375 12.03125 -12.421875 C 12.976562 -11.867188 13.722656 -11.085938 14.265625 -10.078125 C 14.804688 -9.078125 15.078125 -7.910156 15.078125 -6.578125 C 15.078125 -5.253906 14.804688 -4.078125 14.265625 -3.046875 C 13.722656 -2.015625 12.976562 -1.210938 12.03125 -0.640625 C 11.09375 -0.0664062 10.039062 0.21875 8.875 0.21875 C 7.769531 0.21875 6.789062 -0.03125 5.9375 -0.53125 C 5.09375 -1.03125 4.445312 -1.65625 4 -2.40625 L 4 6.1875 L 1.828125 6.1875 L 1.828125 -13.046875 L 4 -13.046875 Z M 12.859375 -6.578125 C 12.859375 -7.554688 12.660156 -8.410156 12.265625 -9.140625 C 11.867188 -9.867188 11.332031 -10.421875 10.65625 -10.796875 C 9.976562 -11.179688 9.234375 -11.375 8.421875 -11.375 C 7.628906 -11.375 6.894531 -11.179688 6.21875 -10.796875 C 5.550781 -10.410156 5.015625 -9.847656 4.609375 -9.109375 C 4.203125 -8.367188 4 -7.515625 4 -6.546875 C 4 -5.566406 4.203125 -4.707031 4.609375 -3.96875 C 5.015625 -3.226562 5.550781 -2.660156 6.21875 -2.265625 C 6.894531 -1.878906 7.628906 -1.6875 8.421875 -1.6875 C 9.234375 -1.6875 9.976562 -1.878906 10.65625 -2.265625 C 11.332031 -2.660156 11.867188 -3.226562 12.265625 -3.96875 C 12.660156 -4.707031 12.859375 -5.578125 12.859375 -6.578125 Z M 12.859375 -6.578125 "/></g></g></g><g fill="#4caf50" fill-opacity="1"><g transform="translate(252.297425, 25.503346)"><g><path d="M 1.03125 -6.578125 C 1.03125 -7.910156 1.296875 -9.078125 1.828125 -10.078125 C 2.367188 -11.085938 3.113281 -11.867188 4.0625 -12.421875 C 5.007812 -12.984375 6.0625 -13.265625 7.21875 -13.265625 C 8.363281 -13.265625 9.351562 -13.015625 10.1875 -12.515625 C 11.03125 -12.023438 11.660156 -11.410156 12.078125 -10.671875 L 12.078125 -13.046875 L 14.265625 -13.046875 L 14.265625 0 L 12.078125 0 L 12.078125 -2.421875 C 11.648438 -1.660156 11.007812 -1.03125 10.15625 -0.53125 C 9.300781 -0.03125 8.3125 0.21875 7.1875 0.21875 C 6.03125 0.21875 4.984375 -0.0664062 4.046875 -0.640625 C 3.109375 -1.210938 2.367188 -2.015625 1.828125 -3.046875 C 1.296875 -4.078125 1.03125 -5.253906 1.03125 -6.578125 Z M 12.078125 -6.546875 C 12.078125 -7.535156 11.875 -8.394531 11.46875 -9.125 C 11.070312 -9.851562 10.535156 -10.410156 9.859375 -10.796875 C 9.191406 -11.179688 8.453125 -11.375 7.640625 -11.375 C 6.828125 -11.375 6.085938 -11.179688 5.421875 -10.796875 C 4.753906 -10.421875 4.222656 -9.867188 3.828125 -9.140625 C 3.429688 -8.410156 3.234375 -7.554688 3.234375 -6.578125 C 3.234375 -5.578125 3.429688 -4.707031 3.828125 -3.96875 C 4.222656 -3.226562 4.753906 -2.660156 5.421875 -2.265625 C 6.085938 -1.878906 6.828125 -1.6875 7.640625 -1.6875 C 8.453125 -1.6875 9.191406 -1.878906 9.859375 -2.265625 C 10.535156 -2.660156 11.070312 -3.226562 11.46875 -3.96875 C 11.875 -4.707031 12.078125 -5.566406 12.078125 -6.546875 Z M 12.078125 -6.546875 "/></g></g></g><g fill="#4caf50" fill-opacity="1"><g transform="translate(266.915235, 25.503346)"><g><path d="M 1.03125 -6.546875 C 1.03125 -7.898438 1.296875 -9.078125 1.828125 -10.078125 C 2.367188 -11.085938 3.117188 -11.867188 4.078125 -12.421875 C 5.046875 -12.984375 6.144531 -13.265625 7.375 -13.265625 C 8.976562 -13.265625 10.300781 -12.875 11.34375 -12.09375 C 12.382812 -11.320312 13.070312 -10.242188 13.40625 -8.859375 L 11.078125 -8.859375 C 10.847656 -9.648438 10.410156 -10.273438 9.765625 -10.734375 C 9.128906 -11.203125 8.332031 -11.4375 7.375 -11.4375 C 6.144531 -11.4375 5.144531 -11.007812 4.375 -10.15625 C 3.613281 -9.300781 3.234375 -8.097656 3.234375 -6.546875 C 3.234375 -4.972656 3.613281 -3.757812 4.375 -2.90625 C 5.144531 -2.050781 6.144531 -1.625 7.375 -1.625 C 8.332031 -1.625 9.128906 -1.84375 9.765625 -2.28125 C 10.398438 -2.726562 10.835938 -3.363281 11.078125 -4.1875 L 13.40625 -4.1875 C 13.050781 -2.851562 12.347656 -1.785156 11.296875 -0.984375 C 10.253906 -0.179688 8.945312 0.21875 7.375 0.21875 C 6.144531 0.21875 5.046875 -0.0546875 4.078125 -0.609375 C 3.117188 -1.171875 2.367188 -1.957031 1.828125 -2.96875 C 1.296875 -3.988281 1.03125 -5.179688 1.03125 -6.546875 Z M 1.03125 -6.546875 "/></g></g></g><g clip-path="url(#871d41a97a)"><g fill="#4caf50" fill-opacity="1"><g transform="translate(279.890208, 25.503346)"><g><path d="M 13.734375 -7.03125 C 13.734375 -6.613281 13.710938 -6.175781 13.671875 -5.71875 L 3.234375 -5.71875 C 3.316406 -4.425781 3.757812 -3.421875 4.5625 -2.703125 C 5.363281 -1.984375 6.335938 -1.625 7.484375 -1.625 C 8.410156 -1.625 9.1875 -1.835938 9.8125 -2.265625 C 10.445312 -2.703125 10.890625 -3.289062 11.140625 -4.03125 L 13.484375 -4.03125 C 13.128906 -2.769531 12.425781 -1.742188 11.375 -0.953125 C 10.332031 -0.171875 9.035156 0.21875 7.484375 0.21875 C 6.242188 0.21875 5.132812 -0.0546875 4.15625 -0.609375 C 3.175781 -1.171875 2.410156 -1.960938 1.859375 -2.984375 C 1.304688 -4.015625 1.03125 -5.203125 1.03125 -6.546875 C 1.03125 -7.898438 1.296875 -9.082031 1.828125 -10.09375 C 2.367188 -11.113281 3.128906 -11.894531 4.109375 -12.4375 C 5.085938 -12.988281 6.210938 -13.265625 7.484375 -13.265625 C 8.710938 -13.265625 9.800781 -12.992188 10.75 -12.453125 C 11.707031 -11.910156 12.441406 -11.164062 12.953125 -10.21875 C 13.472656 -9.28125 13.734375 -8.21875 13.734375 -7.03125 Z M 11.5 -7.484375 C 11.5 -8.304688 11.316406 -9.015625 10.953125 -9.609375 C 10.585938 -10.203125 10.09375 -10.65625 9.46875 -10.96875 C 8.84375 -11.28125 8.144531 -11.4375 7.375 -11.4375 C 6.28125 -11.4375 5.347656 -11.082031 4.578125 -10.375 C 3.804688 -9.675781 3.367188 -8.710938 3.265625 -7.484375 Z M 11.5 -7.484375 "/></g></g></g></g></g></g></g></svg>